<?xml version="1.0" encoding="utf-8" standalone="no"?>
<!DOCTYPE svg PUBLIC "-//W3C//DTD SVG 1.1//EN"
  "http://www.w3.org/Graphics/SVG/1.1/DTD/svg11.dtd">
<svg xmlns:xlink="http://www.w3.org/1999/xlink" width="433.79375pt" height="279.587188pt" viewBox="0 0 433.79375 279.587188" xmlns="http://www.w3.org/2000/svg" version="1.1">
 <metadata>
  <rdf:RDF xmlns:dc="http://purl.org/dc/elements/1.1/" xmlns:cc="http://creativecommons.org/ns#" xmlns:rdf="http://www.w3.org/1999/02/22-rdf-syntax-ns#">
   <cc:Work>
    <dc:type rdf:resource="http://purl.org/dc/dcmitype/StillImage"/>
    <dc:date>2026-05-30T13:54:26.710395</dc:date>
    <dc:format>image/svg+xml</dc:format>
    <dc:creator>
     <cc:Agent>
      <dc:title>Matplotlib v3.10.0, https://matplotlib.org/</dc:title>
     </cc:Agent>
    </dc:creator>
   </cc:Work>
  </rdf:RDF>
 </metadata>
 <defs>
  <style type="text/css">*{stroke-linejoin: round; stroke-linecap: butt}</style>
 </defs>
 <g id="figure_1">
  <g id="patch_1">
   <path d="M 0 279.587188 
L 433.79375 279.587188 
L 433.79375 0 
L 0 0 
z
" style="fill: #ffffff"/>
  </g>
  <g id="axes_1">
   <g id="patch_2">
    <path d="M 40.89875 242.833594 
L 420.33875 242.833594 
L 420.33875 21.073594 
L 40.89875 21.073594 
z
" style="fill: #ffffff"/>
   </g>
   <g id="matplotlib.axis_1">
    <g id="xtick_1">
     <g id="line2d_1">
      <defs>
       <path id="m6b2140004d" d="M 0 0 
L 0 3.5 
" style="stroke: #000000; stroke-width: 0.8"/>
      </defs>
      <g>
       <use xlink:href="#m6b2140004d" x="77.61875" y="242.833594" style="stroke: #000000; stroke-width: 0.8"/>
      </g>
     </g>
     <g id="text_1">
      <!-- 0.4 -->
      <g transform="translate(71.36375 256.275625) scale(0.09 -0.09)">
       <defs>
        <path id="ArialMT-30" d="M 266 2259 
Q 266 3072 433 3567 
Q 600 4063 929 4331 
Q 1259 4600 1759 4600 
Q 2128 4600 2406 4451 
Q 2684 4303 2865 4023 
Q 3047 3744 3150 3342 
Q 3253 2941 3253 2259 
Q 3253 1453 3087 958 
Q 2922 463 2592 192 
Q 2263 -78 1759 -78 
Q 1097 -78 719 397 
Q 266 969 266 2259 
z
M 844 2259 
Q 844 1131 1108 757 
Q 1372 384 1759 384 
Q 2147 384 2411 759 
Q 2675 1134 2675 2259 
Q 2675 3391 2411 3762 
Q 2147 4134 1753 4134 
Q 1366 4134 1134 3806 
Q 844 3388 844 2259 
z
" transform="scale(0.015625)"/>
        <path id="ArialMT-2e" d="M 581 0 
L 581 641 
L 1222 641 
L 1222 0 
L 581 0 
z
" transform="scale(0.015625)"/>
        <path id="ArialMT-34" d="M 2069 0 
L 2069 1097 
L 81 1097 
L 81 1613 
L 2172 4581 
L 2631 4581 
L 2631 1613 
L 3250 1613 
L 3250 1097 
L 2631 1097 
L 2631 0 
L 2069 0 
z
M 2069 1613 
L 2069 3678 
L 634 1613 
L 2069 1613 
z
" transform="scale(0.015625)"/>
       </defs>
       <use xlink:href="#ArialMT-30"/>
       <use xlink:href="#ArialMT-2e" transform="translate(55.615234 0)"/>
       <use xlink:href="#ArialMT-34" transform="translate(83.398438 0)"/>
      </g>
     </g>
    </g>
    <g id="xtick_2">
     <g id="line2d_2">
      <g>
       <use xlink:href="#m6b2140004d" x="126.57875" y="242.833594" style="stroke: #000000; stroke-width: 0.8"/>
      </g>
     </g>
     <g id="text_2">
      <!-- 0.6 -->
      <g transform="translate(120.32375 256.275625) scale(0.09 -0.09)">
       <defs>
        <path id="ArialMT-36" d="M 3184 3459 
L 2625 3416 
Q 2550 3747 2413 3897 
Q 2184 4138 1850 4138 
Q 1581 4138 1378 3988 
Q 1113 3794 959 3422 
Q 806 3050 800 2363 
Q 1003 2672 1297 2822 
Q 1591 2972 1913 2972 
Q 2475 2972 2870 2558 
Q 3266 2144 3266 1488 
Q 3266 1056 3080 686 
Q 2894 316 2569 119 
Q 2244 -78 1831 -78 
Q 1128 -78 684 439 
Q 241 956 241 2144 
Q 241 3472 731 4075 
Q 1159 4600 1884 4600 
Q 2425 4600 2770 4297 
Q 3116 3994 3184 3459 
z
M 888 1484 
Q 888 1194 1011 928 
Q 1134 663 1356 523 
Q 1578 384 1822 384 
Q 2178 384 2434 671 
Q 2691 959 2691 1453 
Q 2691 1928 2437 2201 
Q 2184 2475 1800 2475 
Q 1419 2475 1153 2201 
Q 888 1928 888 1484 
z
" transform="scale(0.015625)"/>
       </defs>
       <use xlink:href="#ArialMT-30"/>
       <use xlink:href="#ArialMT-2e" transform="translate(55.615234 0)"/>
       <use xlink:href="#ArialMT-36" transform="translate(83.398438 0)"/>
      </g>
     </g>
    </g>
    <g id="xtick_3">
     <g id="line2d_3">
      <g>
       <use xlink:href="#m6b2140004d" x="175.53875" y="242.833594" style="stroke: #000000; stroke-width: 0.8"/>
      </g>
     </g>
     <g id="text_3">
      <!-- 0.8 -->
      <g transform="translate(169.28375 256.275625) scale(0.09 -0.09)">
       <defs>
        <path id="ArialMT-38" d="M 1131 2484 
Q 781 2613 612 2850 
Q 444 3088 444 3419 
Q 444 3919 803 4259 
Q 1163 4600 1759 4600 
Q 2359 4600 2725 4251 
Q 3091 3903 3091 3403 
Q 3091 3084 2923 2848 
Q 2756 2613 2416 2484 
Q 2838 2347 3058 2040 
Q 3278 1734 3278 1309 
Q 3278 722 2862 322 
Q 2447 -78 1769 -78 
Q 1091 -78 675 323 
Q 259 725 259 1325 
Q 259 1772 486 2073 
Q 713 2375 1131 2484 
z
M 1019 3438 
Q 1019 3113 1228 2906 
Q 1438 2700 1772 2700 
Q 2097 2700 2305 2904 
Q 2513 3109 2513 3406 
Q 2513 3716 2298 3927 
Q 2084 4138 1766 4138 
Q 1444 4138 1231 3931 
Q 1019 3725 1019 3438 
z
M 838 1322 
Q 838 1081 952 856 
Q 1066 631 1291 507 
Q 1516 384 1775 384 
Q 2178 384 2440 643 
Q 2703 903 2703 1303 
Q 2703 1709 2433 1975 
Q 2163 2241 1756 2241 
Q 1359 2241 1098 1978 
Q 838 1716 838 1322 
z
" transform="scale(0.015625)"/>
       </defs>
       <use xlink:href="#ArialMT-30"/>
       <use xlink:href="#ArialMT-2e" transform="translate(55.615234 0)"/>
       <use xlink:href="#ArialMT-38" transform="translate(83.398438 0)"/>
      </g>
     </g>
    </g>
    <g id="xtick_4">
     <g id="line2d_4">
      <g>
       <use xlink:href="#m6b2140004d" x="224.49875" y="242.833594" style="stroke: #000000; stroke-width: 0.8"/>
      </g>
     </g>
     <g id="text_4">
      <!-- 1.0 -->
      <g transform="translate(218.24375 256.275625) scale(0.09 -0.09)">
       <defs>
        <path id="ArialMT-31" d="M 2384 0 
L 1822 0 
L 1822 3584 
Q 1619 3391 1289 3197 
Q 959 3003 697 2906 
L 697 3450 
Q 1169 3672 1522 3987 
Q 1875 4303 2022 4600 
L 2384 4600 
L 2384 0 
z
" transform="scale(0.015625)"/>
       </defs>
       <use xlink:href="#ArialMT-31"/>
       <use xlink:href="#ArialMT-2e" transform="translate(55.615234 0)"/>
       <use xlink:href="#ArialMT-30" transform="translate(83.398438 0)"/>
      </g>
     </g>
    </g>
    <g id="xtick_5">
     <g id="line2d_5">
      <g>
       <use xlink:href="#m6b2140004d" x="273.45875" y="242.833594" style="stroke: #000000; stroke-width: 0.8"/>
      </g>
     </g>
     <g id="text_5">
      <!-- 1.2 -->
      <g transform="translate(267.20375 256.275625) scale(0.09 -0.09)">
       <defs>
        <path id="ArialMT-32" d="M 3222 541 
L 3222 0 
L 194 0 
Q 188 203 259 391 
Q 375 700 629 1000 
Q 884 1300 1366 1694 
Q 2113 2306 2375 2664 
Q 2638 3022 2638 3341 
Q 2638 3675 2398 3904 
Q 2159 4134 1775 4134 
Q 1369 4134 1125 3890 
Q 881 3647 878 3216 
L 300 3275 
Q 359 3922 746 4261 
Q 1134 4600 1788 4600 
Q 2447 4600 2831 4234 
Q 3216 3869 3216 3328 
Q 3216 3053 3103 2787 
Q 2991 2522 2730 2228 
Q 2469 1934 1863 1422 
Q 1356 997 1212 845 
Q 1069 694 975 541 
L 3222 541 
z
" transform="scale(0.015625)"/>
       </defs>
       <use xlink:href="#ArialMT-31"/>
       <use xlink:href="#ArialMT-2e" transform="translate(55.615234 0)"/>
       <use xlink:href="#ArialMT-32" transform="translate(83.398438 0)"/>
      </g>
     </g>
    </g>
    <g id="xtick_6">
     <g id="line2d_6">
      <g>
       <use xlink:href="#m6b2140004d" x="322.41875" y="242.833594" style="stroke: #000000; stroke-width: 0.8"/>
      </g>
     </g>
     <g id="text_6">
      <!-- 1.4 -->
      <g transform="translate(316.16375 256.275625) scale(0.09 -0.09)">
       <use xlink:href="#ArialMT-31"/>
       <use xlink:href="#ArialMT-2e" transform="translate(55.615234 0)"/>
       <use xlink:href="#ArialMT-34" transform="translate(83.398438 0)"/>
      </g>
     </g>
    </g>
    <g id="xtick_7">
     <g id="line2d_7">
      <g>
       <use xlink:href="#m6b2140004d" x="371.37875" y="242.833594" style="stroke: #000000; stroke-width: 0.8"/>
      </g>
     </g>
     <g id="text_7">
      <!-- 1.6 -->
      <g transform="translate(365.12375 256.275625) scale(0.09 -0.09)">
       <use xlink:href="#ArialMT-31"/>
       <use xlink:href="#ArialMT-2e" transform="translate(55.615234 0)"/>
       <use xlink:href="#ArialMT-36" transform="translate(83.398438 0)"/>
      </g>
     </g>
    </g>
    <g id="xtick_8">
     <g id="line2d_8">
      <g>
       <use xlink:href="#m6b2140004d" x="420.33875" y="242.833594" style="stroke: #000000; stroke-width: 0.8"/>
      </g>
     </g>
     <g id="text_8">
      <!-- 1.8 -->
      <g transform="translate(414.08375 256.275625) scale(0.09 -0.09)">
       <use xlink:href="#ArialMT-31"/>
       <use xlink:href="#ArialMT-2e" transform="translate(55.615234 0)"/>
       <use xlink:href="#ArialMT-38" transform="translate(83.398438 0)"/>
      </g>
     </g>
    </g>
    <g id="text_9">
     <!-- Reaction time (s) -->
     <g transform="translate(189.054219 270.072031) scale(0.11 -0.11)">
      <defs>
       <path id="ArialMT-52" d="M 503 0 
L 503 4581 
L 2534 4581 
Q 3147 4581 3465 4457 
Q 3784 4334 3975 4021 
Q 4166 3709 4166 3331 
Q 4166 2844 3850 2509 
Q 3534 2175 2875 2084 
Q 3116 1969 3241 1856 
Q 3506 1613 3744 1247 
L 4541 0 
L 3778 0 
L 3172 953 
Q 2906 1366 2734 1584 
Q 2563 1803 2427 1890 
Q 2291 1978 2150 2013 
Q 2047 2034 1813 2034 
L 1109 2034 
L 1109 0 
L 503 0 
z
M 1109 2559 
L 2413 2559 
Q 2828 2559 3062 2645 
Q 3297 2731 3419 2920 
Q 3541 3109 3541 3331 
Q 3541 3656 3305 3865 
Q 3069 4075 2559 4075 
L 1109 4075 
L 1109 2559 
z
" transform="scale(0.015625)"/>
       <path id="ArialMT-65" d="M 2694 1069 
L 3275 997 
Q 3138 488 2766 206 
Q 2394 -75 1816 -75 
Q 1088 -75 661 373 
Q 234 822 234 1631 
Q 234 2469 665 2931 
Q 1097 3394 1784 3394 
Q 2450 3394 2872 2941 
Q 3294 2488 3294 1666 
Q 3294 1616 3291 1516 
L 816 1516 
Q 847 969 1125 678 
Q 1403 388 1819 388 
Q 2128 388 2347 550 
Q 2566 713 2694 1069 
z
M 847 1978 
L 2700 1978 
Q 2663 2397 2488 2606 
Q 2219 2931 1791 2931 
Q 1403 2931 1139 2672 
Q 875 2413 847 1978 
z
" transform="scale(0.015625)"/>
       <path id="ArialMT-61" d="M 2588 409 
Q 2275 144 1986 34 
Q 1697 -75 1366 -75 
Q 819 -75 525 192 
Q 231 459 231 875 
Q 231 1119 342 1320 
Q 453 1522 633 1644 
Q 813 1766 1038 1828 
Q 1203 1872 1538 1913 
Q 2219 1994 2541 2106 
Q 2544 2222 2544 2253 
Q 2544 2597 2384 2738 
Q 2169 2928 1744 2928 
Q 1347 2928 1158 2789 
Q 969 2650 878 2297 
L 328 2372 
Q 403 2725 575 2942 
Q 747 3159 1072 3276 
Q 1397 3394 1825 3394 
Q 2250 3394 2515 3294 
Q 2781 3194 2906 3042 
Q 3031 2891 3081 2659 
Q 3109 2516 3109 2141 
L 3109 1391 
Q 3109 606 3145 398 
Q 3181 191 3288 0 
L 2700 0 
Q 2613 175 2588 409 
z
M 2541 1666 
Q 2234 1541 1622 1453 
Q 1275 1403 1131 1340 
Q 988 1278 909 1158 
Q 831 1038 831 891 
Q 831 666 1001 516 
Q 1172 366 1500 366 
Q 1825 366 2078 508 
Q 2331 650 2450 897 
Q 2541 1088 2541 1459 
L 2541 1666 
z
" transform="scale(0.015625)"/>
       <path id="ArialMT-63" d="M 2588 1216 
L 3141 1144 
Q 3050 572 2676 248 
Q 2303 -75 1759 -75 
Q 1078 -75 664 370 
Q 250 816 250 1647 
Q 250 2184 428 2587 
Q 606 2991 970 3192 
Q 1334 3394 1763 3394 
Q 2303 3394 2647 3120 
Q 2991 2847 3088 2344 
L 2541 2259 
Q 2463 2594 2264 2762 
Q 2066 2931 1784 2931 
Q 1359 2931 1093 2626 
Q 828 2322 828 1663 
Q 828 994 1084 691 
Q 1341 388 1753 388 
Q 2084 388 2306 591 
Q 2528 794 2588 1216 
z
" transform="scale(0.015625)"/>
       <path id="ArialMT-74" d="M 1650 503 
L 1731 6 
Q 1494 -44 1306 -44 
Q 1000 -44 831 53 
Q 663 150 594 308 
Q 525 466 525 972 
L 525 2881 
L 113 2881 
L 113 3319 
L 525 3319 
L 525 4141 
L 1084 4478 
L 1084 3319 
L 1650 3319 
L 1650 2881 
L 1084 2881 
L 1084 941 
Q 1084 700 1114 631 
Q 1144 563 1211 522 
Q 1278 481 1403 481 
Q 1497 481 1650 503 
z
" transform="scale(0.015625)"/>
       <path id="ArialMT-69" d="M 425 3934 
L 425 4581 
L 988 4581 
L 988 3934 
L 425 3934 
z
M 425 0 
L 425 3319 
L 988 3319 
L 988 0 
L 425 0 
z
" transform="scale(0.015625)"/>
       <path id="ArialMT-6f" d="M 213 1659 
Q 213 2581 725 3025 
Q 1153 3394 1769 3394 
Q 2453 3394 2887 2945 
Q 3322 2497 3322 1706 
Q 3322 1066 3130 698 
Q 2938 331 2570 128 
Q 2203 -75 1769 -75 
Q 1072 -75 642 372 
Q 213 819 213 1659 
z
M 791 1659 
Q 791 1022 1069 705 
Q 1347 388 1769 388 
Q 2188 388 2466 706 
Q 2744 1025 2744 1678 
Q 2744 2294 2464 2611 
Q 2184 2928 1769 2928 
Q 1347 2928 1069 2612 
Q 791 2297 791 1659 
z
" transform="scale(0.015625)"/>
       <path id="ArialMT-6e" d="M 422 0 
L 422 3319 
L 928 3319 
L 928 2847 
Q 1294 3394 1984 3394 
Q 2284 3394 2536 3286 
Q 2788 3178 2913 3003 
Q 3038 2828 3088 2588 
Q 3119 2431 3119 2041 
L 3119 0 
L 2556 0 
L 2556 2019 
Q 2556 2363 2490 2533 
Q 2425 2703 2258 2804 
Q 2091 2906 1866 2906 
Q 1506 2906 1245 2678 
Q 984 2450 984 1813 
L 984 0 
L 422 0 
z
" transform="scale(0.015625)"/>
       <path id="ArialMT-20" transform="scale(0.015625)"/>
       <path id="ArialMT-6d" d="M 422 0 
L 422 3319 
L 925 3319 
L 925 2853 
Q 1081 3097 1340 3245 
Q 1600 3394 1931 3394 
Q 2300 3394 2536 3241 
Q 2772 3088 2869 2813 
Q 3263 3394 3894 3394 
Q 4388 3394 4653 3120 
Q 4919 2847 4919 2278 
L 4919 0 
L 4359 0 
L 4359 2091 
Q 4359 2428 4304 2576 
Q 4250 2725 4106 2815 
Q 3963 2906 3769 2906 
Q 3419 2906 3187 2673 
Q 2956 2441 2956 1928 
L 2956 0 
L 2394 0 
L 2394 2156 
Q 2394 2531 2256 2718 
Q 2119 2906 1806 2906 
Q 1569 2906 1367 2781 
Q 1166 2656 1075 2415 
Q 984 2175 984 1722 
L 984 0 
L 422 0 
z
" transform="scale(0.015625)"/>
       <path id="ArialMT-28" d="M 1497 -1347 
Q 1031 -759 709 28 
Q 388 816 388 1659 
Q 388 2403 628 3084 
Q 909 3875 1497 4659 
L 1900 4659 
Q 1522 4009 1400 3731 
Q 1209 3300 1100 2831 
Q 966 2247 966 1656 
Q 966 153 1900 -1347 
L 1497 -1347 
z
" transform="scale(0.015625)"/>
       <path id="ArialMT-73" d="M 197 991 
L 753 1078 
Q 800 744 1014 566 
Q 1228 388 1613 388 
Q 2000 388 2187 545 
Q 2375 703 2375 916 
Q 2375 1106 2209 1216 
Q 2094 1291 1634 1406 
Q 1016 1563 777 1677 
Q 538 1791 414 1992 
Q 291 2194 291 2438 
Q 291 2659 392 2848 
Q 494 3038 669 3163 
Q 800 3259 1026 3326 
Q 1253 3394 1513 3394 
Q 1903 3394 2198 3281 
Q 2494 3169 2634 2976 
Q 2775 2784 2828 2463 
L 2278 2388 
Q 2241 2644 2061 2787 
Q 1881 2931 1553 2931 
Q 1166 2931 1000 2803 
Q 834 2675 834 2503 
Q 834 2394 903 2306 
Q 972 2216 1119 2156 
Q 1203 2125 1616 2013 
Q 2213 1853 2448 1751 
Q 2684 1650 2818 1456 
Q 2953 1263 2953 975 
Q 2953 694 2789 445 
Q 2625 197 2315 61 
Q 2006 -75 1616 -75 
Q 969 -75 630 194 
Q 291 463 197 991 
z
" transform="scale(0.015625)"/>
       <path id="ArialMT-29" d="M 791 -1347 
L 388 -1347 
Q 1322 153 1322 1656 
Q 1322 2244 1188 2822 
Q 1081 3291 891 3722 
Q 769 4003 388 4659 
L 791 4659 
Q 1378 3875 1659 3084 
Q 1900 2403 1900 1659 
Q 1900 816 1576 28 
Q 1253 -759 791 -1347 
z
" transform="scale(0.015625)"/>
      </defs>
      <use xlink:href="#ArialMT-52"/>
      <use xlink:href="#ArialMT-65" transform="translate(72.216797 0)"/>
      <use xlink:href="#ArialMT-61" transform="translate(127.832031 0)"/>
      <use xlink:href="#ArialMT-63" transform="translate(183.447266 0)"/>
      <use xlink:href="#ArialMT-74" transform="translate(233.447266 0)"/>
      <use xlink:href="#ArialMT-69" transform="translate(261.230469 0)"/>
      <use xlink:href="#ArialMT-6f" transform="translate(283.447266 0)"/>
      <use xlink:href="#ArialMT-6e" transform="translate(339.0625 0)"/>
      <use xlink:href="#ArialMT-20" transform="translate(394.677734 0)"/>
      <use xlink:href="#ArialMT-74" transform="translate(422.460938 0)"/>
      <use xlink:href="#ArialMT-69" transform="translate(450.244141 0)"/>
      <use xlink:href="#ArialMT-6d" transform="translate(472.460938 0)"/>
      <use xlink:href="#ArialMT-65" transform="translate(555.761719 0)"/>
      <use xlink:href="#ArialMT-20" transform="translate(611.376953 0)"/>
      <use xlink:href="#ArialMT-28" transform="translate(639.160156 0)"/>
      <use xlink:href="#ArialMT-73" transform="translate(672.460938 0)"/>
      <use xlink:href="#ArialMT-29" transform="translate(722.460938 0)"/>
     </g>
    </g>
   </g>
   <g id="matplotlib.axis_2">
    <g id="ytick_1">
     <g id="line2d_9">
      <defs>
       <path id="md9fa27b4b9" d="M 0 0 
L -3.5 0 
" style="stroke: #000000; stroke-width: 0.8"/>
      </defs>
      <g>
       <use xlink:href="#md9fa27b4b9" x="40.89875" y="232.753594" style="stroke: #000000; stroke-width: 0.8"/>
      </g>
     </g>
     <g id="text_10">
      <!-- 0.0 -->
      <g transform="translate(21.38875 235.974609) scale(0.09 -0.09)">
       <use xlink:href="#ArialMT-30"/>
       <use xlink:href="#ArialMT-2e" transform="translate(55.615234 0)"/>
       <use xlink:href="#ArialMT-30" transform="translate(83.398438 0)"/>
      </g>
     </g>
    </g>
    <g id="ytick_2">
     <g id="line2d_10">
      <g>
       <use xlink:href="#md9fa27b4b9" x="40.89875" y="207.246241" style="stroke: #000000; stroke-width: 0.8"/>
      </g>
     </g>
     <g id="text_11">
      <!-- 0.5 -->
      <g transform="translate(21.38875 210.467257) scale(0.09 -0.09)">
       <defs>
        <path id="ArialMT-35" d="M 266 1200 
L 856 1250 
Q 922 819 1161 601 
Q 1400 384 1738 384 
Q 2144 384 2425 690 
Q 2706 997 2706 1503 
Q 2706 1984 2436 2262 
Q 2166 2541 1728 2541 
Q 1456 2541 1237 2417 
Q 1019 2294 894 2097 
L 366 2166 
L 809 4519 
L 3088 4519 
L 3088 3981 
L 1259 3981 
L 1013 2750 
Q 1425 3038 1878 3038 
Q 2478 3038 2890 2622 
Q 3303 2206 3303 1553 
Q 3303 931 2941 478 
Q 2500 -78 1738 -78 
Q 1113 -78 717 272 
Q 322 622 266 1200 
z
" transform="scale(0.015625)"/>
       </defs>
       <use xlink:href="#ArialMT-30"/>
       <use xlink:href="#ArialMT-2e" transform="translate(55.615234 0)"/>
       <use xlink:href="#ArialMT-35" transform="translate(83.398438 0)"/>
      </g>
     </g>
    </g>
    <g id="ytick_3">
     <g id="line2d_11">
      <g>
       <use xlink:href="#md9fa27b4b9" x="40.89875" y="181.738888" style="stroke: #000000; stroke-width: 0.8"/>
      </g>
     </g>
     <g id="text_12">
      <!-- 1.0 -->
      <g transform="translate(21.38875 184.959904) scale(0.09 -0.09)">
       <use xlink:href="#ArialMT-31"/>
       <use xlink:href="#ArialMT-2e" transform="translate(55.615234 0)"/>
       <use xlink:href="#ArialMT-30" transform="translate(83.398438 0)"/>
      </g>
     </g>
    </g>
    <g id="ytick_4">
     <g id="line2d_12">
      <g>
       <use xlink:href="#md9fa27b4b9" x="40.89875" y="156.231535" style="stroke: #000000; stroke-width: 0.8"/>
      </g>
     </g>
     <g id="text_13">
      <!-- 1.5 -->
      <g transform="translate(21.38875 159.452551) scale(0.09 -0.09)">
       <use xlink:href="#ArialMT-31"/>
       <use xlink:href="#ArialMT-2e" transform="translate(55.615234 0)"/>
       <use xlink:href="#ArialMT-35" transform="translate(83.398438 0)"/>
      </g>
     </g>
    </g>
    <g id="ytick_5">
     <g id="line2d_13">
      <g>
       <use xlink:href="#md9fa27b4b9" x="40.89875" y="130.724182" style="stroke: #000000; stroke-width: 0.8"/>
      </g>
     </g>
     <g id="text_14">
      <!-- 2.0 -->
      <g transform="translate(21.38875 133.945198) scale(0.09 -0.09)">
       <use xlink:href="#ArialMT-32"/>
       <use xlink:href="#ArialMT-2e" transform="translate(55.615234 0)"/>
       <use xlink:href="#ArialMT-30" transform="translate(83.398438 0)"/>
      </g>
     </g>
    </g>
    <g id="ytick_6">
     <g id="line2d_14">
      <g>
       <use xlink:href="#md9fa27b4b9" x="40.89875" y="105.216829" style="stroke: #000000; stroke-width: 0.8"/>
      </g>
     </g>
     <g id="text_15">
      <!-- 2.5 -->
      <g transform="translate(21.38875 108.437845) scale(0.09 -0.09)">
       <use xlink:href="#ArialMT-32"/>
       <use xlink:href="#ArialMT-2e" transform="translate(55.615234 0)"/>
       <use xlink:href="#ArialMT-35" transform="translate(83.398438 0)"/>
      </g>
     </g>
    </g>
    <g id="ytick_7">
     <g id="line2d_15">
      <g>
       <use xlink:href="#md9fa27b4b9" x="40.89875" y="79.709477" style="stroke: #000000; stroke-width: 0.8"/>
      </g>
     </g>
     <g id="text_16">
      <!-- 3.0 -->
      <g transform="translate(21.38875 82.930492) scale(0.09 -0.09)">
       <defs>
        <path id="ArialMT-33" d="M 269 1209 
L 831 1284 
Q 928 806 1161 595 
Q 1394 384 1728 384 
Q 2125 384 2398 659 
Q 2672 934 2672 1341 
Q 2672 1728 2419 1979 
Q 2166 2231 1775 2231 
Q 1616 2231 1378 2169 
L 1441 2663 
Q 1497 2656 1531 2656 
Q 1891 2656 2178 2843 
Q 2466 3031 2466 3422 
Q 2466 3731 2256 3934 
Q 2047 4138 1716 4138 
Q 1388 4138 1169 3931 
Q 950 3725 888 3313 
L 325 3413 
Q 428 3978 793 4289 
Q 1159 4600 1703 4600 
Q 2078 4600 2393 4439 
Q 2709 4278 2876 4000 
Q 3044 3722 3044 3409 
Q 3044 3113 2884 2869 
Q 2725 2625 2413 2481 
Q 2819 2388 3044 2092 
Q 3269 1797 3269 1353 
Q 3269 753 2831 336 
Q 2394 -81 1725 -81 
Q 1122 -81 723 278 
Q 325 638 269 1209 
z
" transform="scale(0.015625)"/>
       </defs>
       <use xlink:href="#ArialMT-33"/>
       <use xlink:href="#ArialMT-2e" transform="translate(55.615234 0)"/>
       <use xlink:href="#ArialMT-30" transform="translate(83.398438 0)"/>
      </g>
     </g>
    </g>
    <g id="ytick_8">
     <g id="line2d_16">
      <g>
       <use xlink:href="#md9fa27b4b9" x="40.89875" y="54.202124" style="stroke: #000000; stroke-width: 0.8"/>
      </g>
     </g>
     <g id="text_17">
      <!-- 3.5 -->
      <g transform="translate(21.38875 57.423139) scale(0.09 -0.09)">
       <use xlink:href="#ArialMT-33"/>
       <use xlink:href="#ArialMT-2e" transform="translate(55.615234 0)"/>
       <use xlink:href="#ArialMT-35" transform="translate(83.398438 0)"/>
      </g>
     </g>
    </g>
    <g id="ytick_9">
     <g id="line2d_17">
      <g>
       <use xlink:href="#md9fa27b4b9" x="40.89875" y="28.694771" style="stroke: #000000; stroke-width: 0.8"/>
      </g>
     </g>
     <g id="text_18">
      <!-- 4.0 -->
      <g transform="translate(21.38875 31.915786) scale(0.09 -0.09)">
       <use xlink:href="#ArialMT-34"/>
       <use xlink:href="#ArialMT-2e" transform="translate(55.615234 0)"/>
       <use xlink:href="#ArialMT-30" transform="translate(83.398438 0)"/>
      </g>
     </g>
    </g>
    <g id="text_19">
     <!-- Density -->
     <g transform="translate(15.073594 150.292656) rotate(-90) scale(0.11 -0.11)">
      <defs>
       <path id="ArialMT-44" d="M 494 0 
L 494 4581 
L 2072 4581 
Q 2606 4581 2888 4516 
Q 3281 4425 3559 4188 
Q 3922 3881 4101 3404 
Q 4281 2928 4281 2316 
Q 4281 1794 4159 1391 
Q 4038 988 3847 723 
Q 3656 459 3429 307 
Q 3203 156 2883 78 
Q 2563 0 2147 0 
L 494 0 
z
M 1100 541 
L 2078 541 
Q 2531 541 2789 625 
Q 3047 709 3200 863 
Q 3416 1078 3536 1442 
Q 3656 1806 3656 2325 
Q 3656 3044 3420 3430 
Q 3184 3816 2847 3947 
Q 2603 4041 2063 4041 
L 1100 4041 
L 1100 541 
z
" transform="scale(0.015625)"/>
       <path id="ArialMT-79" d="M 397 -1278 
L 334 -750 
Q 519 -800 656 -800 
Q 844 -800 956 -737 
Q 1069 -675 1141 -563 
Q 1194 -478 1313 -144 
Q 1328 -97 1363 -6 
L 103 3319 
L 709 3319 
L 1400 1397 
Q 1534 1031 1641 628 
Q 1738 1016 1872 1384 
L 2581 3319 
L 3144 3319 
L 1881 -56 
Q 1678 -603 1566 -809 
Q 1416 -1088 1222 -1217 
Q 1028 -1347 759 -1347 
Q 597 -1347 397 -1278 
z
" transform="scale(0.015625)"/>
      </defs>
      <use xlink:href="#ArialMT-44"/>
      <use xlink:href="#ArialMT-65" transform="translate(72.216797 0)"/>
      <use xlink:href="#ArialMT-6e" transform="translate(127.832031 0)"/>
      <use xlink:href="#ArialMT-73" transform="translate(183.447266 0)"/>
      <use xlink:href="#ArialMT-69" transform="translate(233.447266 0)"/>
      <use xlink:href="#ArialMT-74" transform="translate(255.664062 0)"/>
      <use xlink:href="#ArialMT-79" transform="translate(283.447266 0)"/>
     </g>
    </g>
   </g>
   <g id="line2d_18">
    <path d="M 40.89875 232.173137 
L 59.934202 232.476808 
L 75.162563 232.486849 
L 84.045773 232.291479 
L 89.121894 231.975761 
L 92.928984 231.54463 
L 96.736074 230.852788 
L 99.274135 230.192371 
L 101.812195 229.32738 
L 104.350255 228.214297 
L 106.888315 226.806656 
L 109.426375 225.056845 
L 111.964436 222.918501 
L 114.502496 220.349455 
L 117.040556 217.31508 
L 119.578616 213.791831 
L 122.116676 209.770685 
L 124.654737 205.260153 
L 127.192797 200.288499 
L 129.730857 194.904869 
L 133.537947 186.21494 
L 146.228248 156.163905 
L 148.766309 150.832371 
L 151.304369 145.976458 
L 153.842429 141.673313 
L 156.380489 137.978935 
L 158.918549 134.927225 
L 160.187579 133.647052 
L 161.45661 132.530629 
L 162.72564 131.576483 
L 163.99467 130.782095 
L 165.2637 130.144004 
L 166.53273 129.657912 
L 167.80176 129.318785 
L 169.07079 129.120951 
L 170.33982 129.05819 
L 171.60885 129.123818 
L 172.87788 129.310756 
L 175.415941 130.018656 
L 177.954001 131.119593 
L 180.492061 132.548295 
L 183.030121 134.237876 
L 186.837212 137.115363 
L 202.065573 149.218762 
L 207.141693 152.720188 
L 224.908115 164.532916 
L 229.984235 168.355191 
L 236.329385 173.413264 
L 249.019686 183.628183 
L 254.095807 187.436926 
L 259.171927 190.977589 
L 264.248048 194.254136 
L 270.593198 198.083959 
L 288.35962 208.422537 
L 294.70477 211.911236 
L 299.78089 214.452081 
L 304.857011 216.695237 
L 308.664101 218.16311 
L 313.740222 219.84067 
L 318.816342 221.238605 
L 325.161492 222.695629 
L 332.775673 224.19601 
L 342.927914 225.980323 
L 350.542094 227.129365 
L 356.887245 227.896903 
L 364.501426 228.569522 
L 373.384636 229.106648 
L 417.80069 231.295238 
L 420.33875 231.399481 
L 420.33875 231.399481 
" clip-path="url(#p8644f6934f)" style="fill: none; stroke: #d55e00; stroke-width: 1.8; stroke-linecap: square"/>
   </g>
   <g id="line2d_19">
    <path d="M 40.89875 232.180199 
L 45.97487 231.633968 
L 51.050991 230.825361 
L 56.127111 229.770322 
L 61.203232 228.510274 
L 67.548382 226.681062 
L 73.893533 224.566086 
L 80.238683 222.19427 
L 86.583834 219.599045 
L 91.659954 217.274135 
L 95.467044 215.283667 
L 99.274135 213.016782 
L 103.081225 210.464378 
L 108.157345 206.71274 
L 123.385707 194.873696 
L 128.461827 190.714954 
L 132.268917 187.299162 
L 136.076008 183.546253 
L 139.883098 179.4682 
L 153.842429 164.011049 
L 157.649519 160.37143 
L 161.45661 157.130927 
L 165.2637 154.297516 
L 167.80176 152.642393 
L 170.33982 151.185571 
L 172.87788 149.937508 
L 175.415941 148.903536 
L 177.954001 148.079426 
L 180.492061 147.450448 
L 183.030121 146.994973 
L 186.837212 146.592503 
L 190.644302 146.504336 
L 193.182362 146.639273 
L 195.720422 146.961775 
L 198.258482 147.505232 
L 200.796543 148.297562 
L 203.334603 149.353035 
L 205.872663 150.667523 
L 208.410723 152.218045 
L 212.217814 154.899537 
L 217.293934 158.882414 
L 242.674536 179.608395 
L 250.288717 186.392319 
L 260.440957 195.500636 
L 265.517078 199.760467 
L 269.324168 202.719334 
L 273.131258 205.430432 
L 276.938349 207.856392 
L 280.745439 209.957815 
L 283.283499 211.160361 
L 285.821559 212.196566 
L 288.35962 213.067626 
L 292.16671 214.089979 
L 295.9738 214.840184 
L 302.318951 215.769457 
L 312.471191 217.227648 
L 336.582763 220.899001 
L 345.465974 222.043937 
L 356.887245 223.249136 
L 367.039486 224.393699 
L 393.689118 227.61173 
L 413.993599 229.713953 
L 420.33875 230.24428 
L 420.33875 230.24428 
" clip-path="url(#p8644f6934f)" style="fill: none; stroke-dasharray: 6.66,2.88; stroke-dashoffset: 0; stroke: #e69f00; stroke-width: 1.8"/>
   </g>
   <g id="line2d_20">
    <path d="M 40.89875 232.30458 
L 56.127111 231.627819 
L 61.203232 231.039453 
L 63.741292 230.590997 
L 66.279352 229.889073 
L 67.548382 229.362281 
L 68.817412 228.654582 
L 70.086442 227.705118 
L 71.355472 226.443323 
L 72.624503 224.790331 
L 73.893533 222.661347 
L 75.162563 219.969386 
L 76.431593 216.630745 
L 77.700623 212.572259 
L 78.969653 207.739835 
L 80.238683 202.107112 
L 81.507713 195.682517 
L 82.776743 188.512891 
L 85.314804 172.305359 
L 89.121894 145.263638 
L 92.928984 117.979279 
L 95.467044 100.849287 
L 98.005105 85.160919 
L 100.543165 71.371528 
L 101.812195 65.295693 
L 103.081225 59.786699 
L 104.350255 54.832165 
L 105.619285 50.400849 
L 106.888315 46.451303 
L 108.157345 42.943414 
L 109.426375 39.849987 
L 110.695406 37.165431 
L 111.964436 34.909292 
L 113.233466 33.123656 
L 114.502496 31.864956 
L 115.771526 31.192089 
L 117.040556 31.153594 
L 118.309586 31.776801 
L 119.578616 33.061269 
L 120.847646 34.977636 
L 122.116676 37.4717 
L 123.385707 40.472324 
L 124.654737 43.901157 
L 127.192797 51.748722 
L 129.730857 60.547076 
L 132.268917 70.057273 
L 136.076008 85.455589 
L 147.497278 133.466177 
L 151.304369 148.074194 
L 153.842429 157.13828 
L 156.380489 165.433591 
L 158.918549 172.826819 
L 161.45661 179.325336 
L 163.99467 185.035336 
L 166.53273 190.080419 
L 169.07079 194.569545 
L 171.60885 198.60583 
L 174.146911 202.275229 
L 176.684971 205.615865 
L 179.223031 208.625305 
L 181.761091 211.310916 
L 184.299151 213.714701 
L 186.837212 215.87697 
L 189.375272 217.794232 
L 191.913332 219.433727 
L 194.451392 220.783275 
L 196.989452 221.868969 
L 199.527513 222.727782 
L 202.065573 223.388155 
L 205.872663 224.100334 
L 214.755874 225.399831 
L 223.639084 226.515251 
L 226.177145 227.120083 
L 237.598416 230.289729 
L 240.136476 230.71441 
L 242.674536 230.973383 
L 245.212596 231.066168 
L 249.019686 230.977505 
L 254.095807 230.851685 
L 257.902897 231.037036 
L 266.786108 231.705091 
L 273.131258 231.713579 
L 279.476409 231.793832 
L 285.821559 231.883622 
L 298.51186 231.740143 
L 313.740222 232.394281 
L 322.623432 232.53196 
L 331.506643 232.703836 
L 339.120824 232.610114 
L 356.887245 232.214141 
L 387.343967 232.646444 
L 408.917479 232.425693 
L 420.33875 232.591192 
L 420.33875 232.591192 
" clip-path="url(#p8644f6934f)" style="fill: none; stroke: #0072b2; stroke-width: 1.8; stroke-linecap: square"/>
   </g>
   <g id="line2d_21">
    <path d="M 40.89875 230.837902 
L 43.43681 229.396233 
L 45.97487 227.574712 
L 49.781961 224.717938 
L 52.320021 223.124105 
L 54.858081 221.851941 
L 58.665171 220.005787 
L 59.934202 219.210835 
L 61.203232 218.246675 
L 62.472262 217.080292 
L 63.741292 215.694537 
L 65.010322 214.090248 
L 67.548382 210.314852 
L 71.355472 203.820288 
L 76.431593 194.659726 
L 78.969653 189.568387 
L 81.507713 183.702725 
L 84.045773 176.860664 
L 86.583834 169.042388 
L 89.121894 160.431838 
L 96.736074 133.666832 
L 101.812195 117.36169 
L 109.426375 92.858724 
L 110.695406 89.319195 
L 111.964436 86.174324 
L 113.233466 83.478985 
L 114.502496 81.253941 
L 115.771526 79.488379 
L 117.040556 78.148242 
L 118.309586 77.18708 
L 119.578616 76.555803 
L 120.847646 76.208686 
L 122.116676 76.104943 
L 123.385707 76.207146 
L 124.654737 76.479013 
L 127.192797 77.392345 
L 129.730857 78.623661 
L 132.268917 80.128731 
L 134.806977 82.050107 
L 136.076008 83.229036 
L 137.345038 84.580558 
L 138.614068 86.119791 
L 139.883098 87.860335 
L 141.152128 89.816598 
L 142.421158 92.004091 
L 143.690188 94.436973 
L 146.228248 100.061557 
L 148.766309 106.614643 
L 152.573399 117.579521 
L 170.33982 170.433345 
L 174.146911 180.945152 
L 176.684971 187.458361 
L 179.223031 193.290718 
L 180.492061 195.867899 
L 181.761091 198.192383 
L 183.030121 200.265191 
L 185.568181 203.752945 
L 188.106242 206.653664 
L 198.258482 217.614698 
L 202.065573 221.561054 
L 204.603633 223.895667 
L 207.141693 225.908714 
L 209.679753 227.565765 
L 212.217814 228.861758 
L 214.755874 229.805638 
L 217.293934 230.42116 
L 219.831994 230.767688 
L 224.908115 231.081034 
L 229.984235 231.457845 
L 236.329385 231.949117 
L 241.405506 232.122769 
L 249.019686 232.131137 
L 262.979018 232.018672 
L 270.593198 231.96763 
L 280.745439 231.587733 
L 295.9738 231.05016 
L 308.664101 231.502713 
L 322.623432 232.24646 
L 331.506643 232.264662 
L 348.004034 232.74657 
L 393.689118 232.753594 
L 420.33875 232.753594 
L 420.33875 232.753594 
" clip-path="url(#p8644f6934f)" style="fill: none; stroke-dasharray: 6.66,2.88; stroke-dashoffset: 0; stroke: #56b4e9; stroke-width: 1.8"/>
   </g>
   <g id="patch_3">
    <path d="M 40.89875 242.833594 
L 40.89875 21.073594 
" style="fill: none; stroke: #000000; stroke-width: 0.8; stroke-linejoin: miter; stroke-linecap: square"/>
   </g>
   <g id="patch_4">
    <path d="M 40.89875 242.833594 
L 420.33875 242.833594 
" style="fill: none; stroke: #000000; stroke-width: 0.8; stroke-linejoin: miter; stroke-linecap: square"/>
   </g>
   <g id="text_20">
    <!-- Representative subset diagnostic: RT density -->
    <g transform="translate(120.455469 15.073594) scale(0.11 -0.11)">
     <defs>
      <path id="ArialMT-70" d="M 422 -1272 
L 422 3319 
L 934 3319 
L 934 2888 
Q 1116 3141 1344 3267 
Q 1572 3394 1897 3394 
Q 2322 3394 2647 3175 
Q 2972 2956 3137 2557 
Q 3303 2159 3303 1684 
Q 3303 1175 3120 767 
Q 2938 359 2589 142 
Q 2241 -75 1856 -75 
Q 1575 -75 1351 44 
Q 1128 163 984 344 
L 984 -1272 
L 422 -1272 
z
M 931 1641 
Q 931 1000 1190 694 
Q 1450 388 1819 388 
Q 2194 388 2461 705 
Q 2728 1022 2728 1688 
Q 2728 2322 2467 2637 
Q 2206 2953 1844 2953 
Q 1484 2953 1207 2617 
Q 931 2281 931 1641 
z
" transform="scale(0.015625)"/>
      <path id="ArialMT-72" d="M 416 0 
L 416 3319 
L 922 3319 
L 922 2816 
Q 1116 3169 1280 3281 
Q 1444 3394 1641 3394 
Q 1925 3394 2219 3213 
L 2025 2691 
Q 1819 2813 1613 2813 
Q 1428 2813 1281 2702 
Q 1134 2591 1072 2394 
Q 978 2094 978 1738 
L 978 0 
L 416 0 
z
" transform="scale(0.015625)"/>
      <path id="ArialMT-76" d="M 1344 0 
L 81 3319 
L 675 3319 
L 1388 1331 
Q 1503 1009 1600 663 
Q 1675 925 1809 1294 
L 2547 3319 
L 3125 3319 
L 1869 0 
L 1344 0 
z
" transform="scale(0.015625)"/>
      <path id="ArialMT-75" d="M 2597 0 
L 2597 488 
Q 2209 -75 1544 -75 
Q 1250 -75 995 37 
Q 741 150 617 320 
Q 494 491 444 738 
Q 409 903 409 1263 
L 409 3319 
L 972 3319 
L 972 1478 
Q 972 1038 1006 884 
Q 1059 663 1231 536 
Q 1403 409 1656 409 
Q 1909 409 2131 539 
Q 2353 669 2445 892 
Q 2538 1116 2538 1541 
L 2538 3319 
L 3100 3319 
L 3100 0 
L 2597 0 
z
" transform="scale(0.015625)"/>
      <path id="ArialMT-62" d="M 941 0 
L 419 0 
L 419 4581 
L 981 4581 
L 981 2947 
Q 1338 3394 1891 3394 
Q 2197 3394 2470 3270 
Q 2744 3147 2920 2923 
Q 3097 2700 3197 2384 
Q 3297 2069 3297 1709 
Q 3297 856 2875 390 
Q 2453 -75 1863 -75 
Q 1275 -75 941 416 
L 941 0 
z
M 934 1684 
Q 934 1088 1097 822 
Q 1363 388 1816 388 
Q 2184 388 2453 708 
Q 2722 1028 2722 1663 
Q 2722 2313 2464 2622 
Q 2206 2931 1841 2931 
Q 1472 2931 1203 2611 
Q 934 2291 934 1684 
z
" transform="scale(0.015625)"/>
      <path id="ArialMT-64" d="M 2575 0 
L 2575 419 
Q 2259 -75 1647 -75 
Q 1250 -75 917 144 
Q 584 363 401 755 
Q 219 1147 219 1656 
Q 219 2153 384 2558 
Q 550 2963 881 3178 
Q 1213 3394 1622 3394 
Q 1922 3394 2156 3267 
Q 2391 3141 2538 2938 
L 2538 4581 
L 3097 4581 
L 3097 0 
L 2575 0 
z
M 797 1656 
Q 797 1019 1065 703 
Q 1334 388 1700 388 
Q 2069 388 2326 689 
Q 2584 991 2584 1609 
Q 2584 2291 2321 2609 
Q 2059 2928 1675 2928 
Q 1300 2928 1048 2622 
Q 797 2316 797 1656 
z
" transform="scale(0.015625)"/>
      <path id="ArialMT-67" d="M 319 -275 
L 866 -356 
Q 900 -609 1056 -725 
Q 1266 -881 1628 -881 
Q 2019 -881 2231 -725 
Q 2444 -569 2519 -288 
Q 2563 -116 2559 434 
Q 2191 0 1641 0 
Q 956 0 581 494 
Q 206 988 206 1678 
Q 206 2153 378 2554 
Q 550 2956 876 3175 
Q 1203 3394 1644 3394 
Q 2231 3394 2613 2919 
L 2613 3319 
L 3131 3319 
L 3131 450 
Q 3131 -325 2973 -648 
Q 2816 -972 2473 -1159 
Q 2131 -1347 1631 -1347 
Q 1038 -1347 672 -1080 
Q 306 -813 319 -275 
z
M 784 1719 
Q 784 1066 1043 766 
Q 1303 466 1694 466 
Q 2081 466 2343 764 
Q 2606 1063 2606 1700 
Q 2606 2309 2336 2618 
Q 2066 2928 1684 2928 
Q 1309 2928 1046 2623 
Q 784 2319 784 1719 
z
" transform="scale(0.015625)"/>
      <path id="ArialMT-3a" d="M 578 2678 
L 578 3319 
L 1219 3319 
L 1219 2678 
L 578 2678 
z
M 578 0 
L 578 641 
L 1219 641 
L 1219 0 
L 578 0 
z
" transform="scale(0.015625)"/>
      <path id="ArialMT-54" d="M 1659 0 
L 1659 4041 
L 150 4041 
L 150 4581 
L 3781 4581 
L 3781 4041 
L 2266 4041 
L 2266 0 
L 1659 0 
z
" transform="scale(0.015625)"/>
     </defs>
     <use xlink:href="#ArialMT-52"/>
     <use xlink:href="#ArialMT-65" transform="translate(72.216797 0)"/>
     <use xlink:href="#ArialMT-70" transform="translate(127.832031 0)"/>
     <use xlink:href="#ArialMT-72" transform="translate(183.447266 0)"/>
     <use xlink:href="#ArialMT-65" transform="translate(216.748047 0)"/>
     <use xlink:href="#ArialMT-73" transform="translate(272.363281 0)"/>
     <use xlink:href="#ArialMT-65" transform="translate(322.363281 0)"/>
     <use xlink:href="#ArialMT-6e" transform="translate(377.978516 0)"/>
     <use xlink:href="#ArialMT-74" transform="translate(433.59375 0)"/>
     <use xlink:href="#ArialMT-61" transform="translate(461.376953 0)"/>
     <use xlink:href="#ArialMT-74" transform="translate(516.992188 0)"/>
     <use xlink:href="#ArialMT-69" transform="translate(544.775391 0)"/>
     <use xlink:href="#ArialMT-76" transform="translate(566.992188 0)"/>
     <use xlink:href="#ArialMT-65" transform="translate(616.992188 0)"/>
     <use xlink:href="#ArialMT-20" transform="translate(672.607422 0)"/>
     <use xlink:href="#ArialMT-73" transform="translate(700.390625 0)"/>
     <use xlink:href="#ArialMT-75" transform="translate(750.390625 0)"/>
     <use xlink:href="#ArialMT-62" transform="translate(806.005859 0)"/>
     <use xlink:href="#ArialMT-73" transform="translate(861.621094 0)"/>
     <use xlink:href="#ArialMT-65" transform="translate(911.621094 0)"/>
     <use xlink:href="#ArialMT-74" transform="translate(967.236328 0)"/>
     <use xlink:href="#ArialMT-20" transform="translate(995.019531 0)"/>
     <use xlink:href="#ArialMT-64" transform="translate(1022.802734 0)"/>
     <use xlink:href="#ArialMT-69" transform="translate(1078.417969 0)"/>
     <use xlink:href="#ArialMT-61" transform="translate(1100.634766 0)"/>
     <use xlink:href="#ArialMT-67" transform="translate(1156.25 0)"/>
     <use xlink:href="#ArialMT-6e" transform="translate(1211.865234 0)"/>
     <use xlink:href="#ArialMT-6f" transform="translate(1267.480469 0)"/>
     <use xlink:href="#ArialMT-73" transform="translate(1323.095703 0)"/>
     <use xlink:href="#ArialMT-74" transform="translate(1373.095703 0)"/>
     <use xlink:href="#ArialMT-69" transform="translate(1400.878906 0)"/>
     <use xlink:href="#ArialMT-63" transform="translate(1423.095703 0)"/>
     <use xlink:href="#ArialMT-3a" transform="translate(1473.095703 0)"/>
     <use xlink:href="#ArialMT-20" transform="translate(1500.878906 0)"/>
     <use xlink:href="#ArialMT-52" transform="translate(1528.662109 0)"/>
     <use xlink:href="#ArialMT-54" transform="translate(1599.128906 0)"/>
     <use xlink:href="#ArialMT-20" transform="translate(1658.462891 0)"/>
     <use xlink:href="#ArialMT-64" transform="translate(1686.246094 0)"/>
     <use xlink:href="#ArialMT-65" transform="translate(1741.861328 0)"/>
     <use xlink:href="#ArialMT-6e" transform="translate(1797.476562 0)"/>
     <use xlink:href="#ArialMT-73" transform="translate(1853.091797 0)"/>
     <use xlink:href="#ArialMT-69" transform="translate(1903.091797 0)"/>
     <use xlink:href="#ArialMT-74" transform="translate(1925.308594 0)"/>
     <use xlink:href="#ArialMT-79" transform="translate(1953.091797 0)"/>
    </g>
   </g>
   <g id="legend_1">
    <g id="line2d_22">
     <path d="M 239.275625 32.465625 
L 248.275625 32.465625 
L 257.275625 32.465625 
" style="fill: none; stroke: #d55e00; stroke-width: 1.8; stroke-linecap: square"/>
    </g>
    <g id="text_21">
     <!-- older human -->
     <g transform="translate(264.475625 35.615625) scale(0.09 -0.09)">
      <defs>
       <path id="ArialMT-6c" d="M 409 0 
L 409 4581 
L 972 4581 
L 972 0 
L 409 0 
z
" transform="scale(0.015625)"/>
       <path id="ArialMT-68" d="M 422 0 
L 422 4581 
L 984 4581 
L 984 2938 
Q 1378 3394 1978 3394 
Q 2347 3394 2619 3248 
Q 2891 3103 3008 2847 
Q 3125 2591 3125 2103 
L 3125 0 
L 2563 0 
L 2563 2103 
Q 2563 2525 2380 2717 
Q 2197 2909 1863 2909 
Q 1613 2909 1392 2779 
Q 1172 2650 1078 2428 
Q 984 2206 984 1816 
L 984 0 
L 422 0 
z
" transform="scale(0.015625)"/>
      </defs>
      <use xlink:href="#ArialMT-6f"/>
      <use xlink:href="#ArialMT-6c" transform="translate(55.615234 0)"/>
      <use xlink:href="#ArialMT-64" transform="translate(77.832031 0)"/>
      <use xlink:href="#ArialMT-65" transform="translate(133.447266 0)"/>
      <use xlink:href="#ArialMT-72" transform="translate(189.0625 0)"/>
      <use xlink:href="#ArialMT-20" transform="translate(222.363281 0)"/>
      <use xlink:href="#ArialMT-68" transform="translate(250.146484 0)"/>
      <use xlink:href="#ArialMT-75" transform="translate(305.761719 0)"/>
      <use xlink:href="#ArialMT-6d" transform="translate(361.376953 0)"/>
      <use xlink:href="#ArialMT-61" transform="translate(444.677734 0)"/>
      <use xlink:href="#ArialMT-6e" transform="translate(500.292969 0)"/>
     </g>
    </g>
    <g id="line2d_23">
     <path d="M 239.275625 45.196406 
L 248.275625 45.196406 
L 257.275625 45.196406 
" style="fill: none; stroke-dasharray: 6.66,2.88; stroke-dashoffset: 0; stroke: #e69f00; stroke-width: 1.8"/>
    </g>
    <g id="text_22">
     <!-- older model -->
     <g transform="translate(264.475625 48.346406) scale(0.09 -0.09)">
      <use xlink:href="#ArialMT-6f"/>
      <use xlink:href="#ArialMT-6c" transform="translate(55.615234 0)"/>
      <use xlink:href="#ArialMT-64" transform="translate(77.832031 0)"/>
      <use xlink:href="#ArialMT-65" transform="translate(133.447266 0)"/>
      <use xlink:href="#ArialMT-72" transform="translate(189.0625 0)"/>
      <use xlink:href="#ArialMT-20" transform="translate(222.363281 0)"/>
      <use xlink:href="#ArialMT-6d" transform="translate(250.146484 0)"/>
      <use xlink:href="#ArialMT-6f" transform="translate(333.447266 0)"/>
      <use xlink:href="#ArialMT-64" transform="translate(389.0625 0)"/>
      <use xlink:href="#ArialMT-65" transform="translate(444.677734 0)"/>
      <use xlink:href="#ArialMT-6c" transform="translate(500.292969 0)"/>
     </g>
    </g>
    <g id="line2d_24">
     <path d="M 332.502969 32.465625 
L 341.502969 32.465625 
L 350.502969 32.465625 
" style="fill: none; stroke: #0072b2; stroke-width: 1.8; stroke-linecap: square"/>
    </g>
    <g id="text_23">
     <!-- young human -->
     <g transform="translate(357.702969 35.615625) scale(0.09 -0.09)">
      <use xlink:href="#ArialMT-79"/>
      <use xlink:href="#ArialMT-6f" transform="translate(50 0)"/>
      <use xlink:href="#ArialMT-75" transform="translate(105.615234 0)"/>
      <use xlink:href="#ArialMT-6e" transform="translate(161.230469 0)"/>
      <use xlink:href="#ArialMT-67" transform="translate(216.845703 0)"/>
      <use xlink:href="#ArialMT-20" transform="translate(272.460938 0)"/>
      <use xlink:href="#ArialMT-68" transform="translate(300.244141 0)"/>
      <use xlink:href="#ArialMT-75" transform="translate(355.859375 0)"/>
      <use xlink:href="#ArialMT-6d" transform="translate(411.474609 0)"/>
      <use xlink:href="#ArialMT-61" transform="translate(494.775391 0)"/>
      <use xlink:href="#ArialMT-6e" transform="translate(550.390625 0)"/>
     </g>
    </g>
    <g id="line2d_25">
     <path d="M 332.502969 45.301875 
L 341.502969 45.301875 
L 350.502969 45.301875 
" style="fill: none; stroke-dasharray: 6.66,2.88; stroke-dashoffset: 0; stroke: #56b4e9; stroke-width: 1.8"/>
    </g>
    <g id="text_24">
     <!-- young model -->
     <g transform="translate(357.702969 48.451875) scale(0.09 -0.09)">
      <use xlink:href="#ArialMT-79"/>
      <use xlink:href="#ArialMT-6f" transform="translate(50 0)"/>
      <use xlink:href="#ArialMT-75" transform="translate(105.615234 0)"/>
      <use xlink:href="#ArialMT-6e" transform="translate(161.230469 0)"/>
      <use xlink:href="#ArialMT-67" transform="translate(216.845703 0)"/>
      <use xlink:href="#ArialMT-20" transform="translate(272.460938 0)"/>
      <use xlink:href="#ArialMT-6d" transform="translate(300.244141 0)"/>
      <use xlink:href="#ArialMT-6f" transform="translate(383.544922 0)"/>
      <use xlink:href="#ArialMT-64" transform="translate(439.160156 0)"/>
      <use xlink:href="#ArialMT-65" transform="translate(494.775391 0)"/>
      <use xlink:href="#ArialMT-6c" transform="translate(550.390625 0)"/>
     </g>
    </g>
   </g>
  </g>
 </g>
 <defs>
  <clipPath id="p8644f6934f">
   <rect x="40.89875" y="21.073594" width="379.44" height="221.76"/>
  </clipPath>
 </defs>
</svg>
