<?xml version="1.0" encoding="utf-8" standalone="no"?>
<!DOCTYPE svg PUBLIC "-//W3C//DTD SVG 1.1//EN"
  "http://www.w3.org/Graphics/SVG/1.1/DTD/svg11.dtd">
<svg xmlns:xlink="http://www.w3.org/1999/xlink" width="680.49125pt" height="504.414687pt" viewBox="0 0 680.49125 504.414687" xmlns="http://www.w3.org/2000/svg" version="1.1">
 <metadata>
  <rdf:RDF xmlns:dc="http://purl.org/dc/elements/1.1/" xmlns:cc="http://creativecommons.org/ns#" xmlns:rdf="http://www.w3.org/1999/02/22-rdf-syntax-ns#">
   <cc:Work>
    <dc:type rdf:resource="http://purl.org/dc/dcmitype/StillImage"/>
    <dc:date>2026-05-30T14:30:09.422687</dc:date>
    <dc:format>image/svg+xml</dc:format>
    <dc:creator>
     <cc:Agent>
      <dc:title>Matplotlib v3.10.0, https://matplotlib.org/</dc:title>
     </cc:Agent>
    </dc:creator>
   </cc:Work>
  </rdf:RDF>
 </metadata>
 <defs>
  <style type="text/css">*{stroke-linejoin: round; stroke-linecap: butt}</style>
 </defs>
 <g id="figure_1">
  <g id="patch_1">
   <path d="M 0 504.414687 
L 680.49125 504.414687 
L 680.49125 0 
L 0 0 
z
" style="fill: #ffffff"/>
  </g>
  <g id="axes_1">
   <g id="patch_2">
    <path d="M 59.49125 223.970625 
L 338.49125 223.970625 
L 338.49125 22.370625 
L 59.49125 22.370625 
z
" style="fill: #ffffff"/>
   </g>
   <g id="matplotlib.axis_1">
    <g id="xtick_1">
     <g id="line2d_1">
      <defs>
       <path id="m4dd49d857c" d="M 0 0 
L 0 3.5 
" style="stroke: #000000; stroke-width: 0.8"/>
      </defs>
      <g>
       <use xlink:href="#m4dd49d857c" x="72.173068" y="223.970625" style="stroke: #000000; stroke-width: 0.8"/>
      </g>
     </g>
    </g>
    <g id="xtick_2">
     <g id="line2d_2">
      <g>
       <use xlink:href="#m4dd49d857c" x="104.278937" y="223.970625" style="stroke: #000000; stroke-width: 0.8"/>
      </g>
     </g>
    </g>
    <g id="xtick_3">
     <g id="line2d_3">
      <g>
       <use xlink:href="#m4dd49d857c" x="136.384806" y="223.970625" style="stroke: #000000; stroke-width: 0.8"/>
      </g>
     </g>
    </g>
    <g id="xtick_4">
     <g id="line2d_4">
      <g>
       <use xlink:href="#m4dd49d857c" x="168.490675" y="223.970625" style="stroke: #000000; stroke-width: 0.8"/>
      </g>
     </g>
    </g>
    <g id="xtick_5">
     <g id="line2d_5">
      <g>
       <use xlink:href="#m4dd49d857c" x="200.596543" y="223.970625" style="stroke: #000000; stroke-width: 0.8"/>
      </g>
     </g>
    </g>
    <g id="xtick_6">
     <g id="line2d_6">
      <g>
       <use xlink:href="#m4dd49d857c" x="232.702412" y="223.970625" style="stroke: #000000; stroke-width: 0.8"/>
      </g>
     </g>
    </g>
    <g id="xtick_7">
     <g id="line2d_7">
      <g>
       <use xlink:href="#m4dd49d857c" x="264.808281" y="223.970625" style="stroke: #000000; stroke-width: 0.8"/>
      </g>
     </g>
    </g>
    <g id="xtick_8">
     <g id="line2d_8">
      <g>
       <use xlink:href="#m4dd49d857c" x="296.91415" y="223.970625" style="stroke: #000000; stroke-width: 0.8"/>
      </g>
     </g>
    </g>
    <g id="xtick_9">
     <g id="line2d_9">
      <g>
       <use xlink:href="#m4dd49d857c" x="329.020019" y="223.970625" style="stroke: #000000; stroke-width: 0.8"/>
      </g>
     </g>
    </g>
    <g id="text_1">
     <!-- Time (s) -->
     <g transform="translate(176.629453 239.828906) scale(0.11 -0.11)">
      <defs>
       <path id="DejaVuSans-54" d="M -19 4666 
L 3928 4666 
L 3928 4134 
L 2272 4134 
L 2272 0 
L 1638 0 
L 1638 4134 
L -19 4134 
L -19 4666 
z
" transform="scale(0.015625)"/>
       <path id="DejaVuSans-69" d="M 603 3500 
L 1178 3500 
L 1178 0 
L 603 0 
L 603 3500 
z
M 603 4863 
L 1178 4863 
L 1178 4134 
L 603 4134 
L 603 4863 
z
" transform="scale(0.015625)"/>
       <path id="DejaVuSans-6d" d="M 3328 2828 
Q 3544 3216 3844 3400 
Q 4144 3584 4550 3584 
Q 5097 3584 5394 3201 
Q 5691 2819 5691 2113 
L 5691 0 
L 5113 0 
L 5113 2094 
Q 5113 2597 4934 2840 
Q 4756 3084 4391 3084 
Q 3944 3084 3684 2787 
Q 3425 2491 3425 1978 
L 3425 0 
L 2847 0 
L 2847 2094 
Q 2847 2600 2669 2842 
Q 2491 3084 2119 3084 
Q 1678 3084 1418 2786 
Q 1159 2488 1159 1978 
L 1159 0 
L 581 0 
L 581 3500 
L 1159 3500 
L 1159 2956 
Q 1356 3278 1631 3431 
Q 1906 3584 2284 3584 
Q 2666 3584 2933 3390 
Q 3200 3197 3328 2828 
z
" transform="scale(0.015625)"/>
       <path id="DejaVuSans-65" d="M 3597 1894 
L 3597 1613 
L 953 1613 
Q 991 1019 1311 708 
Q 1631 397 2203 397 
Q 2534 397 2845 478 
Q 3156 559 3463 722 
L 3463 178 
Q 3153 47 2828 -22 
Q 2503 -91 2169 -91 
Q 1331 -91 842 396 
Q 353 884 353 1716 
Q 353 2575 817 3079 
Q 1281 3584 2069 3584 
Q 2775 3584 3186 3129 
Q 3597 2675 3597 1894 
z
M 3022 2063 
Q 3016 2534 2758 2815 
Q 2500 3097 2075 3097 
Q 1594 3097 1305 2825 
Q 1016 2553 972 2059 
L 3022 2063 
z
" transform="scale(0.015625)"/>
       <path id="DejaVuSans-20" transform="scale(0.015625)"/>
       <path id="DejaVuSans-28" d="M 1984 4856 
Q 1566 4138 1362 3434 
Q 1159 2731 1159 2009 
Q 1159 1288 1364 580 
Q 1569 -128 1984 -844 
L 1484 -844 
Q 1016 -109 783 600 
Q 550 1309 550 2009 
Q 550 2706 781 3412 
Q 1013 4119 1484 4856 
L 1984 4856 
z
" transform="scale(0.015625)"/>
       <path id="DejaVuSans-73" d="M 2834 3397 
L 2834 2853 
Q 2591 2978 2328 3040 
Q 2066 3103 1784 3103 
Q 1356 3103 1142 2972 
Q 928 2841 928 2578 
Q 928 2378 1081 2264 
Q 1234 2150 1697 2047 
L 1894 2003 
Q 2506 1872 2764 1633 
Q 3022 1394 3022 966 
Q 3022 478 2636 193 
Q 2250 -91 1575 -91 
Q 1294 -91 989 -36 
Q 684 19 347 128 
L 347 722 
Q 666 556 975 473 
Q 1284 391 1588 391 
Q 1994 391 2212 530 
Q 2431 669 2431 922 
Q 2431 1156 2273 1281 
Q 2116 1406 1581 1522 
L 1381 1569 
Q 847 1681 609 1914 
Q 372 2147 372 2553 
Q 372 3047 722 3315 
Q 1072 3584 1716 3584 
Q 2034 3584 2315 3537 
Q 2597 3491 2834 3397 
z
" transform="scale(0.015625)"/>
       <path id="DejaVuSans-29" d="M 513 4856 
L 1013 4856 
Q 1481 4119 1714 3412 
Q 1947 2706 1947 2009 
Q 1947 1309 1714 600 
Q 1481 -109 1013 -844 
L 513 -844 
Q 928 -128 1133 580 
Q 1338 1288 1338 2009 
Q 1338 2731 1133 3434 
Q 928 4138 513 4856 
z
" transform="scale(0.015625)"/>
      </defs>
      <use xlink:href="#DejaVuSans-54"/>
      <use xlink:href="#DejaVuSans-69" transform="translate(57.958984 0)"/>
      <use xlink:href="#DejaVuSans-6d" transform="translate(85.742188 0)"/>
      <use xlink:href="#DejaVuSans-65" transform="translate(183.154297 0)"/>
      <use xlink:href="#DejaVuSans-20" transform="translate(244.677734 0)"/>
      <use xlink:href="#DejaVuSans-28" transform="translate(276.464844 0)"/>
      <use xlink:href="#DejaVuSans-73" transform="translate(315.478516 0)"/>
      <use xlink:href="#DejaVuSans-29" transform="translate(367.578125 0)"/>
     </g>
    </g>
   </g>
   <g id="matplotlib.axis_2">
    <g id="ytick_1">
     <g id="line2d_10">
      <defs>
       <path id="md84a8e2e5f" d="M 0 0 
L -3.5 0 
" style="stroke: #000000; stroke-width: 0.8"/>
      </defs>
      <g>
       <use xlink:href="#md84a8e2e5f" x="59.49125" y="218.91534" style="stroke: #000000; stroke-width: 0.8"/>
      </g>
     </g>
     <g id="text_2">
      <!-- −0.10 -->
      <g transform="translate(21.845938 222.714559) scale(0.1 -0.1)">
       <defs>
        <path id="DejaVuSans-2212" d="M 678 2272 
L 4684 2272 
L 4684 1741 
L 678 1741 
L 678 2272 
z
" transform="scale(0.015625)"/>
        <path id="DejaVuSans-30" d="M 2034 4250 
Q 1547 4250 1301 3770 
Q 1056 3291 1056 2328 
Q 1056 1369 1301 889 
Q 1547 409 2034 409 
Q 2525 409 2770 889 
Q 3016 1369 3016 2328 
Q 3016 3291 2770 3770 
Q 2525 4250 2034 4250 
z
M 2034 4750 
Q 2819 4750 3233 4129 
Q 3647 3509 3647 2328 
Q 3647 1150 3233 529 
Q 2819 -91 2034 -91 
Q 1250 -91 836 529 
Q 422 1150 422 2328 
Q 422 3509 836 4129 
Q 1250 4750 2034 4750 
z
" transform="scale(0.015625)"/>
        <path id="DejaVuSans-2e" d="M 684 794 
L 1344 794 
L 1344 0 
L 684 0 
L 684 794 
z
" transform="scale(0.015625)"/>
        <path id="DejaVuSans-31" d="M 794 531 
L 1825 531 
L 1825 4091 
L 703 3866 
L 703 4441 
L 1819 4666 
L 2450 4666 
L 2450 531 
L 3481 531 
L 3481 0 
L 794 0 
L 794 531 
z
" transform="scale(0.015625)"/>
       </defs>
       <use xlink:href="#DejaVuSans-2212"/>
       <use xlink:href="#DejaVuSans-30" transform="translate(83.789062 0)"/>
       <use xlink:href="#DejaVuSans-2e" transform="translate(147.412109 0)"/>
       <use xlink:href="#DejaVuSans-31" transform="translate(179.199219 0)"/>
       <use xlink:href="#DejaVuSans-30" transform="translate(242.822266 0)"/>
      </g>
     </g>
    </g>
    <g id="ytick_2">
     <g id="line2d_11">
      <g>
       <use xlink:href="#md84a8e2e5f" x="59.49125" y="185.080051" style="stroke: #000000; stroke-width: 0.8"/>
      </g>
     </g>
     <g id="text_3">
      <!-- −0.05 -->
      <g transform="translate(21.845938 188.87927) scale(0.1 -0.1)">
       <defs>
        <path id="DejaVuSans-35" d="M 691 4666 
L 3169 4666 
L 3169 4134 
L 1269 4134 
L 1269 2991 
Q 1406 3038 1543 3061 
Q 1681 3084 1819 3084 
Q 2600 3084 3056 2656 
Q 3513 2228 3513 1497 
Q 3513 744 3044 326 
Q 2575 -91 1722 -91 
Q 1428 -91 1123 -41 
Q 819 9 494 109 
L 494 744 
Q 775 591 1075 516 
Q 1375 441 1709 441 
Q 2250 441 2565 725 
Q 2881 1009 2881 1497 
Q 2881 1984 2565 2268 
Q 2250 2553 1709 2553 
Q 1456 2553 1204 2497 
Q 953 2441 691 2322 
L 691 4666 
z
" transform="scale(0.015625)"/>
       </defs>
       <use xlink:href="#DejaVuSans-2212"/>
       <use xlink:href="#DejaVuSans-30" transform="translate(83.789062 0)"/>
       <use xlink:href="#DejaVuSans-2e" transform="translate(147.412109 0)"/>
       <use xlink:href="#DejaVuSans-30" transform="translate(179.199219 0)"/>
       <use xlink:href="#DejaVuSans-35" transform="translate(242.822266 0)"/>
      </g>
     </g>
    </g>
    <g id="ytick_3">
     <g id="line2d_12">
      <g>
       <use xlink:href="#md84a8e2e5f" x="59.49125" y="151.244763" style="stroke: #000000; stroke-width: 0.8"/>
      </g>
     </g>
     <g id="text_4">
      <!-- 0.00 -->
      <g transform="translate(30.225625 155.043981) scale(0.1 -0.1)">
       <use xlink:href="#DejaVuSans-30"/>
       <use xlink:href="#DejaVuSans-2e" transform="translate(63.623047 0)"/>
       <use xlink:href="#DejaVuSans-30" transform="translate(95.410156 0)"/>
       <use xlink:href="#DejaVuSans-30" transform="translate(159.033203 0)"/>
      </g>
     </g>
    </g>
    <g id="ytick_4">
     <g id="line2d_13">
      <g>
       <use xlink:href="#md84a8e2e5f" x="59.49125" y="117.409474" style="stroke: #000000; stroke-width: 0.8"/>
      </g>
     </g>
     <g id="text_5">
      <!-- 0.05 -->
      <g transform="translate(30.225625 121.208693) scale(0.1 -0.1)">
       <use xlink:href="#DejaVuSans-30"/>
       <use xlink:href="#DejaVuSans-2e" transform="translate(63.623047 0)"/>
       <use xlink:href="#DejaVuSans-30" transform="translate(95.410156 0)"/>
       <use xlink:href="#DejaVuSans-35" transform="translate(159.033203 0)"/>
      </g>
     </g>
    </g>
    <g id="ytick_5">
     <g id="line2d_14">
      <g>
       <use xlink:href="#md84a8e2e5f" x="59.49125" y="83.574185" style="stroke: #000000; stroke-width: 0.8"/>
      </g>
     </g>
     <g id="text_6">
      <!-- 0.10 -->
      <g transform="translate(30.225625 87.373404) scale(0.1 -0.1)">
       <use xlink:href="#DejaVuSans-30"/>
       <use xlink:href="#DejaVuSans-2e" transform="translate(63.623047 0)"/>
       <use xlink:href="#DejaVuSans-31" transform="translate(95.410156 0)"/>
       <use xlink:href="#DejaVuSans-30" transform="translate(159.033203 0)"/>
      </g>
     </g>
    </g>
    <g id="ytick_6">
     <g id="line2d_15">
      <g>
       <use xlink:href="#md84a8e2e5f" x="59.49125" y="49.738897" style="stroke: #000000; stroke-width: 0.8"/>
      </g>
     </g>
     <g id="text_7">
      <!-- 0.15 -->
      <g transform="translate(30.225625 53.538115) scale(0.1 -0.1)">
       <use xlink:href="#DejaVuSans-30"/>
       <use xlink:href="#DejaVuSans-2e" transform="translate(63.623047 0)"/>
       <use xlink:href="#DejaVuSans-31" transform="translate(95.410156 0)"/>
       <use xlink:href="#DejaVuSans-35" transform="translate(159.033203 0)"/>
      </g>
     </g>
    </g>
    <g id="text_8">
     <!-- target - flanker -->
     <g transform="translate(15.558281 164.325234) rotate(-90) scale(0.11 -0.11)">
      <defs>
       <path id="DejaVuSans-74" d="M 1172 4494 
L 1172 3500 
L 2356 3500 
L 2356 3053 
L 1172 3053 
L 1172 1153 
Q 1172 725 1289 603 
Q 1406 481 1766 481 
L 2356 481 
L 2356 0 
L 1766 0 
Q 1100 0 847 248 
Q 594 497 594 1153 
L 594 3053 
L 172 3053 
L 172 3500 
L 594 3500 
L 594 4494 
L 1172 4494 
z
" transform="scale(0.015625)"/>
       <path id="DejaVuSans-61" d="M 2194 1759 
Q 1497 1759 1228 1600 
Q 959 1441 959 1056 
Q 959 750 1161 570 
Q 1363 391 1709 391 
Q 2188 391 2477 730 
Q 2766 1069 2766 1631 
L 2766 1759 
L 2194 1759 
z
M 3341 1997 
L 3341 0 
L 2766 0 
L 2766 531 
Q 2569 213 2275 61 
Q 1981 -91 1556 -91 
Q 1019 -91 701 211 
Q 384 513 384 1019 
Q 384 1609 779 1909 
Q 1175 2209 1959 2209 
L 2766 2209 
L 2766 2266 
Q 2766 2663 2505 2880 
Q 2244 3097 1772 3097 
Q 1472 3097 1187 3025 
Q 903 2953 641 2809 
L 641 3341 
Q 956 3463 1253 3523 
Q 1550 3584 1831 3584 
Q 2591 3584 2966 3190 
Q 3341 2797 3341 1997 
z
" transform="scale(0.015625)"/>
       <path id="DejaVuSans-72" d="M 2631 2963 
Q 2534 3019 2420 3045 
Q 2306 3072 2169 3072 
Q 1681 3072 1420 2755 
Q 1159 2438 1159 1844 
L 1159 0 
L 581 0 
L 581 3500 
L 1159 3500 
L 1159 2956 
Q 1341 3275 1631 3429 
Q 1922 3584 2338 3584 
Q 2397 3584 2469 3576 
Q 2541 3569 2628 3553 
L 2631 2963 
z
" transform="scale(0.015625)"/>
       <path id="DejaVuSans-67" d="M 2906 1791 
Q 2906 2416 2648 2759 
Q 2391 3103 1925 3103 
Q 1463 3103 1205 2759 
Q 947 2416 947 1791 
Q 947 1169 1205 825 
Q 1463 481 1925 481 
Q 2391 481 2648 825 
Q 2906 1169 2906 1791 
z
M 3481 434 
Q 3481 -459 3084 -895 
Q 2688 -1331 1869 -1331 
Q 1566 -1331 1297 -1286 
Q 1028 -1241 775 -1147 
L 775 -588 
Q 1028 -725 1275 -790 
Q 1522 -856 1778 -856 
Q 2344 -856 2625 -561 
Q 2906 -266 2906 331 
L 2906 616 
Q 2728 306 2450 153 
Q 2172 0 1784 0 
Q 1141 0 747 490 
Q 353 981 353 1791 
Q 353 2603 747 3093 
Q 1141 3584 1784 3584 
Q 2172 3584 2450 3431 
Q 2728 3278 2906 2969 
L 2906 3500 
L 3481 3500 
L 3481 434 
z
" transform="scale(0.015625)"/>
       <path id="DejaVuSans-2d" d="M 313 2009 
L 1997 2009 
L 1997 1497 
L 313 1497 
L 313 2009 
z
" transform="scale(0.015625)"/>
       <path id="DejaVuSans-66" d="M 2375 4863 
L 2375 4384 
L 1825 4384 
Q 1516 4384 1395 4259 
Q 1275 4134 1275 3809 
L 1275 3500 
L 2222 3500 
L 2222 3053 
L 1275 3053 
L 1275 0 
L 697 0 
L 697 3053 
L 147 3053 
L 147 3500 
L 697 3500 
L 697 3744 
Q 697 4328 969 4595 
Q 1241 4863 1831 4863 
L 2375 4863 
z
" transform="scale(0.015625)"/>
       <path id="DejaVuSans-6c" d="M 603 4863 
L 1178 4863 
L 1178 0 
L 603 0 
L 603 4863 
z
" transform="scale(0.015625)"/>
       <path id="DejaVuSans-6e" d="M 3513 2113 
L 3513 0 
L 2938 0 
L 2938 2094 
Q 2938 2591 2744 2837 
Q 2550 3084 2163 3084 
Q 1697 3084 1428 2787 
Q 1159 2491 1159 1978 
L 1159 0 
L 581 0 
L 581 3500 
L 1159 3500 
L 1159 2956 
Q 1366 3272 1645 3428 
Q 1925 3584 2291 3584 
Q 2894 3584 3203 3211 
Q 3513 2838 3513 2113 
z
" transform="scale(0.015625)"/>
       <path id="DejaVuSans-6b" d="M 581 4863 
L 1159 4863 
L 1159 1991 
L 2875 3500 
L 3609 3500 
L 1753 1863 
L 3688 0 
L 2938 0 
L 1159 1709 
L 1159 0 
L 581 0 
L 581 4863 
z
" transform="scale(0.015625)"/>
      </defs>
      <use xlink:href="#DejaVuSans-74"/>
      <use xlink:href="#DejaVuSans-61" transform="translate(39.208984 0)"/>
      <use xlink:href="#DejaVuSans-72" transform="translate(100.488281 0)"/>
      <use xlink:href="#DejaVuSans-67" transform="translate(139.851562 0)"/>
      <use xlink:href="#DejaVuSans-65" transform="translate(203.328125 0)"/>
      <use xlink:href="#DejaVuSans-74" transform="translate(264.851562 0)"/>
      <use xlink:href="#DejaVuSans-20" transform="translate(304.060547 0)"/>
      <use xlink:href="#DejaVuSans-2d" transform="translate(335.847656 0)"/>
      <use xlink:href="#DejaVuSans-20" transform="translate(371.931641 0)"/>
      <use xlink:href="#DejaVuSans-66" transform="translate(403.71875 0)"/>
      <use xlink:href="#DejaVuSans-6c" transform="translate(438.923828 0)"/>
      <use xlink:href="#DejaVuSans-61" transform="translate(466.707031 0)"/>
      <use xlink:href="#DejaVuSans-6e" transform="translate(527.986328 0)"/>
      <use xlink:href="#DejaVuSans-6b" transform="translate(591.365234 0)"/>
      <use xlink:href="#DejaVuSans-65" transform="translate(645.650391 0)"/>
      <use xlink:href="#DejaVuSans-72" transform="translate(707.173828 0)"/>
     </g>
    </g>
   </g>
   <g id="line2d_16">
    <path d="M 72.173068 154.261609 
L 75.383655 157.199188 
L 78.594242 160.056637 
L 81.804829 162.831405 
L 85.015416 165.519725 
L 88.226003 168.116147 
L 91.436589 170.61393 
L 94.647176 173.004781 
L 97.857763 175.278681 
L 101.06835 177.425274 
L 104.278937 179.432637 
L 107.489524 181.288532 
L 110.700111 182.980607 
L 113.910698 184.497206 
L 117.121285 185.827599 
L 120.331871 186.961925 
L 123.542458 187.89316 
L 126.753045 188.61604 
L 129.963632 189.127879 
L 133.174219 189.428252 
L 136.384806 189.519167 
L 139.595393 189.404505 
L 142.80598 189.089753 
L 146.016566 188.58167 
L 149.227153 187.887543 
L 152.43774 187.015969 
L 155.648327 185.975149 
L 158.858914 184.773389 
L 162.069501 183.419546 
L 165.280088 181.922494 
L 168.490675 180.291203 
L 171.701262 178.534683 
L 174.911848 176.662755 
L 178.122435 174.684953 
L 181.333022 172.610977 
L 184.543609 170.451149 
L 187.754196 168.21475 
L 190.964783 165.91128 
L 194.17537 163.549959 
L 197.385957 161.138976 
L 200.596543 158.685824 
L 203.80713 156.197917 
L 207.017717 153.681333 
L 210.228304 151.141793 
L 213.438891 148.584848 
L 216.649478 146.014815 
L 219.860065 143.436519 
L 223.070652 140.853331 
L 226.281238 138.268717 
L 229.491825 135.684678 
L 232.702412 133.102207 
L 235.912999 130.521177 
L 239.123586 127.939881 
L 242.334173 125.354747 
L 245.54476 122.761038 
L 248.755347 120.152071 
L 251.965934 117.519746 
L 255.17652 114.854891 
L 258.387107 112.147069 
L 261.597694 109.385602 
L 264.808281 106.559009 
L 268.018868 103.655544 
L 271.229455 100.664269 
L 274.440042 97.575117 
L 277.650629 94.378472 
L 280.861215 91.067191 
L 284.071802 87.634417 
L 287.282389 84.075823 
L 290.492976 80.388405 
L 293.703563 76.570837 
L 296.91415 72.622845 
L 300.124737 68.54545 
L 303.335324 64.339911 
L 306.545911 60.009022 
L 309.756497 55.555293 
L 312.967084 50.981305 
L 316.177671 46.289379 
L 319.388258 41.483144 
L 322.598845 36.563861 
L 325.809432 31.534261 
" clip-path="url(#p7a3ba75f65)" style="fill: none; stroke: #4c78a8; stroke-width: 2; stroke-linecap: square"/>
   </g>
   <g id="line2d_17">
    <path d="M 59.49125 151.244763 
L 338.49125 151.244763 
" clip-path="url(#p7a3ba75f65)" style="fill: none; stroke: #444444; stroke-linecap: square"/>
   </g>
   <g id="line2d_18">
    <path d="M 105.084044 223.970625 
L 105.084044 22.370625 
" clip-path="url(#p7a3ba75f65)" style="fill: none; stroke-dasharray: 2,3.3; stroke-dashoffset: 0; stroke: #666666; stroke-width: 2"/>
   </g>
   <g id="line2d_19">
    <path d="M 222.905299 223.970625 
L 222.905299 22.370625 
" clip-path="url(#p7a3ba75f65)" style="fill: none; stroke-dasharray: 12.8,3.2,2,3.2; stroke-dashoffset: 0; stroke: #999999; stroke-width: 2"/>
   </g>
   <g id="patch_3">
    <path d="M 59.49125 223.970625 
L 59.49125 22.370625 
" style="fill: none; stroke: #000000; stroke-width: 0.8; stroke-linejoin: miter; stroke-linecap: square"/>
   </g>
   <g id="patch_4">
    <path d="M 59.49125 223.970625 
L 338.49125 223.970625 
" style="fill: none; stroke: #000000; stroke-width: 0.8; stroke-linejoin: miter; stroke-linecap: square"/>
   </g>
   <g id="text_9">
    <!-- Young 20-29 | incongruent correct -->
    <g transform="translate(96.779375 16.370625) scale(0.12 -0.12)">
     <defs>
      <path id="DejaVuSans-59" d="M -13 4666 
L 666 4666 
L 1959 2747 
L 3244 4666 
L 3922 4666 
L 2272 2222 
L 2272 0 
L 1638 0 
L 1638 2222 
L -13 4666 
z
" transform="scale(0.015625)"/>
      <path id="DejaVuSans-6f" d="M 1959 3097 
Q 1497 3097 1228 2736 
Q 959 2375 959 1747 
Q 959 1119 1226 758 
Q 1494 397 1959 397 
Q 2419 397 2687 759 
Q 2956 1122 2956 1747 
Q 2956 2369 2687 2733 
Q 2419 3097 1959 3097 
z
M 1959 3584 
Q 2709 3584 3137 3096 
Q 3566 2609 3566 1747 
Q 3566 888 3137 398 
Q 2709 -91 1959 -91 
Q 1206 -91 779 398 
Q 353 888 353 1747 
Q 353 2609 779 3096 
Q 1206 3584 1959 3584 
z
" transform="scale(0.015625)"/>
      <path id="DejaVuSans-75" d="M 544 1381 
L 544 3500 
L 1119 3500 
L 1119 1403 
Q 1119 906 1312 657 
Q 1506 409 1894 409 
Q 2359 409 2629 706 
Q 2900 1003 2900 1516 
L 2900 3500 
L 3475 3500 
L 3475 0 
L 2900 0 
L 2900 538 
Q 2691 219 2414 64 
Q 2138 -91 1772 -91 
Q 1169 -91 856 284 
Q 544 659 544 1381 
z
M 1991 3584 
L 1991 3584 
z
" transform="scale(0.015625)"/>
      <path id="DejaVuSans-32" d="M 1228 531 
L 3431 531 
L 3431 0 
L 469 0 
L 469 531 
Q 828 903 1448 1529 
Q 2069 2156 2228 2338 
Q 2531 2678 2651 2914 
Q 2772 3150 2772 3378 
Q 2772 3750 2511 3984 
Q 2250 4219 1831 4219 
Q 1534 4219 1204 4116 
Q 875 4013 500 3803 
L 500 4441 
Q 881 4594 1212 4672 
Q 1544 4750 1819 4750 
Q 2544 4750 2975 4387 
Q 3406 4025 3406 3419 
Q 3406 3131 3298 2873 
Q 3191 2616 2906 2266 
Q 2828 2175 2409 1742 
Q 1991 1309 1228 531 
z
" transform="scale(0.015625)"/>
      <path id="DejaVuSans-39" d="M 703 97 
L 703 672 
Q 941 559 1184 500 
Q 1428 441 1663 441 
Q 2288 441 2617 861 
Q 2947 1281 2994 2138 
Q 2813 1869 2534 1725 
Q 2256 1581 1919 1581 
Q 1219 1581 811 2004 
Q 403 2428 403 3163 
Q 403 3881 828 4315 
Q 1253 4750 1959 4750 
Q 2769 4750 3195 4129 
Q 3622 3509 3622 2328 
Q 3622 1225 3098 567 
Q 2575 -91 1691 -91 
Q 1453 -91 1209 -44 
Q 966 3 703 97 
z
M 1959 2075 
Q 2384 2075 2632 2365 
Q 2881 2656 2881 3163 
Q 2881 3666 2632 3958 
Q 2384 4250 1959 4250 
Q 1534 4250 1286 3958 
Q 1038 3666 1038 3163 
Q 1038 2656 1286 2365 
Q 1534 2075 1959 2075 
z
" transform="scale(0.015625)"/>
      <path id="DejaVuSans-7c" d="M 1344 4891 
L 1344 -1509 
L 813 -1509 
L 813 4891 
L 1344 4891 
z
" transform="scale(0.015625)"/>
      <path id="DejaVuSans-63" d="M 3122 3366 
L 3122 2828 
Q 2878 2963 2633 3030 
Q 2388 3097 2138 3097 
Q 1578 3097 1268 2742 
Q 959 2388 959 1747 
Q 959 1106 1268 751 
Q 1578 397 2138 397 
Q 2388 397 2633 464 
Q 2878 531 3122 666 
L 3122 134 
Q 2881 22 2623 -34 
Q 2366 -91 2075 -91 
Q 1284 -91 818 406 
Q 353 903 353 1747 
Q 353 2603 823 3093 
Q 1294 3584 2113 3584 
Q 2378 3584 2631 3529 
Q 2884 3475 3122 3366 
z
" transform="scale(0.015625)"/>
     </defs>
     <use xlink:href="#DejaVuSans-59"/>
     <use xlink:href="#DejaVuSans-6f" transform="translate(47.833984 0)"/>
     <use xlink:href="#DejaVuSans-75" transform="translate(109.015625 0)"/>
     <use xlink:href="#DejaVuSans-6e" transform="translate(172.394531 0)"/>
     <use xlink:href="#DejaVuSans-67" transform="translate(235.773438 0)"/>
     <use xlink:href="#DejaVuSans-20" transform="translate(299.25 0)"/>
     <use xlink:href="#DejaVuSans-32" transform="translate(331.037109 0)"/>
     <use xlink:href="#DejaVuSans-30" transform="translate(394.660156 0)"/>
     <use xlink:href="#DejaVuSans-2d" transform="translate(458.283203 0)"/>
     <use xlink:href="#DejaVuSans-32" transform="translate(494.367188 0)"/>
     <use xlink:href="#DejaVuSans-39" transform="translate(557.990234 0)"/>
     <use xlink:href="#DejaVuSans-20" transform="translate(621.613281 0)"/>
     <use xlink:href="#DejaVuSans-7c" transform="translate(653.400391 0)"/>
     <use xlink:href="#DejaVuSans-20" transform="translate(687.091797 0)"/>
     <use xlink:href="#DejaVuSans-69" transform="translate(718.878906 0)"/>
     <use xlink:href="#DejaVuSans-6e" transform="translate(746.662109 0)"/>
     <use xlink:href="#DejaVuSans-63" transform="translate(810.041016 0)"/>
     <use xlink:href="#DejaVuSans-6f" transform="translate(865.021484 0)"/>
     <use xlink:href="#DejaVuSans-6e" transform="translate(926.203125 0)"/>
     <use xlink:href="#DejaVuSans-67" transform="translate(989.582031 0)"/>
     <use xlink:href="#DejaVuSans-72" transform="translate(1053.058594 0)"/>
     <use xlink:href="#DejaVuSans-75" transform="translate(1094.171875 0)"/>
     <use xlink:href="#DejaVuSans-65" transform="translate(1157.550781 0)"/>
     <use xlink:href="#DejaVuSans-6e" transform="translate(1219.074219 0)"/>
     <use xlink:href="#DejaVuSans-74" transform="translate(1282.453125 0)"/>
     <use xlink:href="#DejaVuSans-20" transform="translate(1321.662109 0)"/>
     <use xlink:href="#DejaVuSans-63" transform="translate(1353.449219 0)"/>
     <use xlink:href="#DejaVuSans-6f" transform="translate(1408.429688 0)"/>
     <use xlink:href="#DejaVuSans-72" transform="translate(1469.611328 0)"/>
     <use xlink:href="#DejaVuSans-72" transform="translate(1508.974609 0)"/>
     <use xlink:href="#DejaVuSans-65" transform="translate(1547.837891 0)"/>
     <use xlink:href="#DejaVuSans-63" transform="translate(1609.361328 0)"/>
     <use xlink:href="#DejaVuSans-74" transform="translate(1664.341797 0)"/>
    </g>
   </g>
  </g>
  <g id="axes_2">
   <g id="patch_5">
    <path d="M 394.29125 223.970625 
L 673.29125 223.970625 
L 673.29125 22.370625 
L 394.29125 22.370625 
z
" style="fill: #ffffff"/>
   </g>
   <g id="matplotlib.axis_3">
    <g id="xtick_10">
     <g id="line2d_20">
      <g>
       <use xlink:href="#m4dd49d857c" x="406.973068" y="223.970625" style="stroke: #000000; stroke-width: 0.8"/>
      </g>
     </g>
    </g>
    <g id="xtick_11">
     <g id="line2d_21">
      <g>
       <use xlink:href="#m4dd49d857c" x="439.078937" y="223.970625" style="stroke: #000000; stroke-width: 0.8"/>
      </g>
     </g>
    </g>
    <g id="xtick_12">
     <g id="line2d_22">
      <g>
       <use xlink:href="#m4dd49d857c" x="471.184806" y="223.970625" style="stroke: #000000; stroke-width: 0.8"/>
      </g>
     </g>
    </g>
    <g id="xtick_13">
     <g id="line2d_23">
      <g>
       <use xlink:href="#m4dd49d857c" x="503.290675" y="223.970625" style="stroke: #000000; stroke-width: 0.8"/>
      </g>
     </g>
    </g>
    <g id="xtick_14">
     <g id="line2d_24">
      <g>
       <use xlink:href="#m4dd49d857c" x="535.396543" y="223.970625" style="stroke: #000000; stroke-width: 0.8"/>
      </g>
     </g>
    </g>
    <g id="xtick_15">
     <g id="line2d_25">
      <g>
       <use xlink:href="#m4dd49d857c" x="567.502412" y="223.970625" style="stroke: #000000; stroke-width: 0.8"/>
      </g>
     </g>
    </g>
    <g id="xtick_16">
     <g id="line2d_26">
      <g>
       <use xlink:href="#m4dd49d857c" x="599.608281" y="223.970625" style="stroke: #000000; stroke-width: 0.8"/>
      </g>
     </g>
    </g>
    <g id="xtick_17">
     <g id="line2d_27">
      <g>
       <use xlink:href="#m4dd49d857c" x="631.71415" y="223.970625" style="stroke: #000000; stroke-width: 0.8"/>
      </g>
     </g>
    </g>
    <g id="xtick_18">
     <g id="line2d_28">
      <g>
       <use xlink:href="#m4dd49d857c" x="663.820019" y="223.970625" style="stroke: #000000; stroke-width: 0.8"/>
      </g>
     </g>
    </g>
    <g id="text_10">
     <!-- Time (s) -->
     <g transform="translate(511.429453 239.828906) scale(0.11 -0.11)">
      <use xlink:href="#DejaVuSans-54"/>
      <use xlink:href="#DejaVuSans-69" transform="translate(57.958984 0)"/>
      <use xlink:href="#DejaVuSans-6d" transform="translate(85.742188 0)"/>
      <use xlink:href="#DejaVuSans-65" transform="translate(183.154297 0)"/>
      <use xlink:href="#DejaVuSans-20" transform="translate(244.677734 0)"/>
      <use xlink:href="#DejaVuSans-28" transform="translate(276.464844 0)"/>
      <use xlink:href="#DejaVuSans-73" transform="translate(315.478516 0)"/>
      <use xlink:href="#DejaVuSans-29" transform="translate(367.578125 0)"/>
     </g>
    </g>
   </g>
   <g id="matplotlib.axis_4">
    <g id="ytick_7">
     <g id="line2d_29">
      <g>
       <use xlink:href="#md84a8e2e5f" x="394.29125" y="218.91534" style="stroke: #000000; stroke-width: 0.8"/>
      </g>
     </g>
    </g>
    <g id="ytick_8">
     <g id="line2d_30">
      <g>
       <use xlink:href="#md84a8e2e5f" x="394.29125" y="185.080051" style="stroke: #000000; stroke-width: 0.8"/>
      </g>
     </g>
    </g>
    <g id="ytick_9">
     <g id="line2d_31">
      <g>
       <use xlink:href="#md84a8e2e5f" x="394.29125" y="151.244763" style="stroke: #000000; stroke-width: 0.8"/>
      </g>
     </g>
    </g>
    <g id="ytick_10">
     <g id="line2d_32">
      <g>
       <use xlink:href="#md84a8e2e5f" x="394.29125" y="117.409474" style="stroke: #000000; stroke-width: 0.8"/>
      </g>
     </g>
    </g>
    <g id="ytick_11">
     <g id="line2d_33">
      <g>
       <use xlink:href="#md84a8e2e5f" x="394.29125" y="83.574185" style="stroke: #000000; stroke-width: 0.8"/>
      </g>
     </g>
    </g>
    <g id="ytick_12">
     <g id="line2d_34">
      <g>
       <use xlink:href="#md84a8e2e5f" x="394.29125" y="49.738897" style="stroke: #000000; stroke-width: 0.8"/>
      </g>
     </g>
    </g>
    <g id="text_11">
     <!-- target - flanker -->
     <g transform="translate(384.503594 164.325234) rotate(-90) scale(0.11 -0.11)">
      <use xlink:href="#DejaVuSans-74"/>
      <use xlink:href="#DejaVuSans-61" transform="translate(39.208984 0)"/>
      <use xlink:href="#DejaVuSans-72" transform="translate(100.488281 0)"/>
      <use xlink:href="#DejaVuSans-67" transform="translate(139.851562 0)"/>
      <use xlink:href="#DejaVuSans-65" transform="translate(203.328125 0)"/>
      <use xlink:href="#DejaVuSans-74" transform="translate(264.851562 0)"/>
      <use xlink:href="#DejaVuSans-20" transform="translate(304.060547 0)"/>
      <use xlink:href="#DejaVuSans-2d" transform="translate(335.847656 0)"/>
      <use xlink:href="#DejaVuSans-20" transform="translate(371.931641 0)"/>
      <use xlink:href="#DejaVuSans-66" transform="translate(403.71875 0)"/>
      <use xlink:href="#DejaVuSans-6c" transform="translate(438.923828 0)"/>
      <use xlink:href="#DejaVuSans-61" transform="translate(466.707031 0)"/>
      <use xlink:href="#DejaVuSans-6e" transform="translate(527.986328 0)"/>
      <use xlink:href="#DejaVuSans-6b" transform="translate(591.365234 0)"/>
      <use xlink:href="#DejaVuSans-65" transform="translate(645.650391 0)"/>
      <use xlink:href="#DejaVuSans-72" transform="translate(707.173828 0)"/>
     </g>
    </g>
   </g>
   <g id="line2d_35">
    <path d="M 406.973068 154.970348 
L 410.183655 158.62338 
L 413.394242 162.205651 
L 416.604829 165.717764 
L 419.815416 169.158686 
L 423.026003 172.526012 
L 426.236589 175.815946 
L 429.447176 179.02342 
L 432.657763 182.141472 
L 435.86835 185.162478 
L 439.078937 188.077672 
L 442.289524 190.877547 
L 445.500111 193.552249 
L 448.710698 196.092001 
L 451.921285 198.487964 
L 455.131871 200.731684 
L 458.342458 202.816383 
L 461.553045 204.736844 
L 464.763632 206.489271 
L 467.974219 208.071877 
L 471.184806 209.483571 
L 474.395393 210.725293 
L 477.60598 211.798148 
L 480.816566 212.704128 
L 484.027153 213.445316 
L 487.23774 214.023823 
L 490.448327 214.441858 
L 493.658914 214.702012 
L 496.869501 214.806989 
L 500.080088 214.760362 
L 503.290675 214.566341 
L 506.501262 214.230932 
L 509.711848 213.760981 
L 512.922435 213.16515 
L 516.133022 212.453488 
L 519.343609 211.636869 
L 522.554196 210.728333 
L 525.764783 209.738935 
L 528.97537 208.682486 
L 532.185957 207.571529 
L 535.396543 206.418307 
L 538.60713 205.233971 
L 541.817717 204.029009 
L 545.028304 202.812758 
L 548.238891 201.592509 
L 551.449478 200.375295 
L 554.660065 199.165569 
L 557.870652 197.96701 
L 561.081238 196.78152 
L 564.291825 195.609612 
L 567.502412 194.450304 
L 570.712999 193.301125 
L 573.923586 192.158934 
L 577.134173 191.018664 
L 580.34476 189.874557 
L 583.555347 188.719771 
L 586.765934 187.546997 
L 589.97652 186.348186 
L 593.187107 185.114571 
L 596.397694 183.837898 
L 599.608281 182.509825 
L 602.818868 181.122539 
L 606.029455 179.669029 
L 609.240042 178.143309 
L 612.450629 176.540671 
L 615.661215 174.85749 
L 618.871802 173.091879 
L 622.082389 171.24332 
L 625.292976 169.312472 
L 628.503563 167.301091 
L 631.71415 165.211738 
L 634.924737 163.047947 
L 638.135324 160.813056 
L 641.345911 158.511103 
L 644.556497 156.145517 
L 647.767084 153.719979 
L 650.977671 151.2372 
L 654.188258 148.700241 
L 657.398845 146.110726 
L 660.609432 143.470551 
" clip-path="url(#pbf1e34b3bc)" style="fill: none; stroke: #4c78a8; stroke-width: 2; stroke-linecap: square"/>
   </g>
   <g id="line2d_36">
    <path d="M 394.29125 151.244763 
L 673.29125 151.244763 
" clip-path="url(#pbf1e34b3bc)" style="fill: none; stroke: #444444; stroke-linecap: square"/>
   </g>
   <g id="line2d_37">
    <path d="M 427.884469 223.970625 
L 427.884469 22.370625 
" clip-path="url(#pbf1e34b3bc)" style="fill: none; stroke-dasharray: 2,3.3; stroke-dashoffset: 0; stroke: #666666; stroke-width: 2"/>
   </g>
   <g id="line2d_38">
    <path d="M 608.71293 223.970625 
L 608.71293 22.370625 
" clip-path="url(#pbf1e34b3bc)" style="fill: none; stroke-dasharray: 12.8,3.2,2,3.2; stroke-dashoffset: 0; stroke: #999999; stroke-width: 2"/>
   </g>
   <g id="patch_6">
    <path d="M 394.29125 223.970625 
L 394.29125 22.370625 
" style="fill: none; stroke: #000000; stroke-width: 0.8; stroke-linejoin: miter; stroke-linecap: square"/>
   </g>
   <g id="patch_7">
    <path d="M 394.29125 223.970625 
L 673.29125 223.970625 
" style="fill: none; stroke: #000000; stroke-width: 0.8; stroke-linejoin: miter; stroke-linecap: square"/>
   </g>
   <g id="text_12">
    <!-- Young 20-29 | incongruent error -->
    <g transform="translate(438.063125 16.370625) scale(0.12 -0.12)">
     <use xlink:href="#DejaVuSans-59"/>
     <use xlink:href="#DejaVuSans-6f" transform="translate(47.833984 0)"/>
     <use xlink:href="#DejaVuSans-75" transform="translate(109.015625 0)"/>
     <use xlink:href="#DejaVuSans-6e" transform="translate(172.394531 0)"/>
     <use xlink:href="#DejaVuSans-67" transform="translate(235.773438 0)"/>
     <use xlink:href="#DejaVuSans-20" transform="translate(299.25 0)"/>
     <use xlink:href="#DejaVuSans-32" transform="translate(331.037109 0)"/>
     <use xlink:href="#DejaVuSans-30" transform="translate(394.660156 0)"/>
     <use xlink:href="#DejaVuSans-2d" transform="translate(458.283203 0)"/>
     <use xlink:href="#DejaVuSans-32" transform="translate(494.367188 0)"/>
     <use xlink:href="#DejaVuSans-39" transform="translate(557.990234 0)"/>
     <use xlink:href="#DejaVuSans-20" transform="translate(621.613281 0)"/>
     <use xlink:href="#DejaVuSans-7c" transform="translate(653.400391 0)"/>
     <use xlink:href="#DejaVuSans-20" transform="translate(687.091797 0)"/>
     <use xlink:href="#DejaVuSans-69" transform="translate(718.878906 0)"/>
     <use xlink:href="#DejaVuSans-6e" transform="translate(746.662109 0)"/>
     <use xlink:href="#DejaVuSans-63" transform="translate(810.041016 0)"/>
     <use xlink:href="#DejaVuSans-6f" transform="translate(865.021484 0)"/>
     <use xlink:href="#DejaVuSans-6e" transform="translate(926.203125 0)"/>
     <use xlink:href="#DejaVuSans-67" transform="translate(989.582031 0)"/>
     <use xlink:href="#DejaVuSans-72" transform="translate(1053.058594 0)"/>
     <use xlink:href="#DejaVuSans-75" transform="translate(1094.171875 0)"/>
     <use xlink:href="#DejaVuSans-65" transform="translate(1157.550781 0)"/>
     <use xlink:href="#DejaVuSans-6e" transform="translate(1219.074219 0)"/>
     <use xlink:href="#DejaVuSans-74" transform="translate(1282.453125 0)"/>
     <use xlink:href="#DejaVuSans-20" transform="translate(1321.662109 0)"/>
     <use xlink:href="#DejaVuSans-65" transform="translate(1353.449219 0)"/>
     <use xlink:href="#DejaVuSans-72" transform="translate(1414.972656 0)"/>
     <use xlink:href="#DejaVuSans-72" transform="translate(1454.335938 0)"/>
     <use xlink:href="#DejaVuSans-6f" transform="translate(1493.199219 0)"/>
     <use xlink:href="#DejaVuSans-72" transform="translate(1554.380859 0)"/>
    </g>
   </g>
  </g>
  <g id="axes_3">
   <g id="patch_8">
    <path d="M 59.49125 465.890625 
L 338.49125 465.890625 
L 338.49125 264.290625 
L 59.49125 264.290625 
z
" style="fill: #ffffff"/>
   </g>
   <g id="matplotlib.axis_5">
    <g id="xtick_19">
     <g id="line2d_39">
      <g>
       <use xlink:href="#m4dd49d857c" x="72.173068" y="465.890625" style="stroke: #000000; stroke-width: 0.8"/>
      </g>
     </g>
     <g id="text_13">
      <!-- 0.0 -->
      <g transform="translate(64.221506 480.489062) scale(0.1 -0.1)">
       <use xlink:href="#DejaVuSans-30"/>
       <use xlink:href="#DejaVuSans-2e" transform="translate(63.623047 0)"/>
       <use xlink:href="#DejaVuSans-30" transform="translate(95.410156 0)"/>
      </g>
     </g>
    </g>
    <g id="xtick_20">
     <g id="line2d_40">
      <g>
       <use xlink:href="#m4dd49d857c" x="104.278937" y="465.890625" style="stroke: #000000; stroke-width: 0.8"/>
      </g>
     </g>
     <g id="text_14">
      <!-- 0.1 -->
      <g transform="translate(96.327374 480.489062) scale(0.1 -0.1)">
       <use xlink:href="#DejaVuSans-30"/>
       <use xlink:href="#DejaVuSans-2e" transform="translate(63.623047 0)"/>
       <use xlink:href="#DejaVuSans-31" transform="translate(95.410156 0)"/>
      </g>
     </g>
    </g>
    <g id="xtick_21">
     <g id="line2d_41">
      <g>
       <use xlink:href="#m4dd49d857c" x="136.384806" y="465.890625" style="stroke: #000000; stroke-width: 0.8"/>
      </g>
     </g>
     <g id="text_15">
      <!-- 0.2 -->
      <g transform="translate(128.433243 480.489062) scale(0.1 -0.1)">
       <use xlink:href="#DejaVuSans-30"/>
       <use xlink:href="#DejaVuSans-2e" transform="translate(63.623047 0)"/>
       <use xlink:href="#DejaVuSans-32" transform="translate(95.410156 0)"/>
      </g>
     </g>
    </g>
    <g id="xtick_22">
     <g id="line2d_42">
      <g>
       <use xlink:href="#m4dd49d857c" x="168.490675" y="465.890625" style="stroke: #000000; stroke-width: 0.8"/>
      </g>
     </g>
     <g id="text_16">
      <!-- 0.3 -->
      <g transform="translate(160.539112 480.489062) scale(0.1 -0.1)">
       <defs>
        <path id="DejaVuSans-33" d="M 2597 2516 
Q 3050 2419 3304 2112 
Q 3559 1806 3559 1356 
Q 3559 666 3084 287 
Q 2609 -91 1734 -91 
Q 1441 -91 1130 -33 
Q 819 25 488 141 
L 488 750 
Q 750 597 1062 519 
Q 1375 441 1716 441 
Q 2309 441 2620 675 
Q 2931 909 2931 1356 
Q 2931 1769 2642 2001 
Q 2353 2234 1838 2234 
L 1294 2234 
L 1294 2753 
L 1863 2753 
Q 2328 2753 2575 2939 
Q 2822 3125 2822 3475 
Q 2822 3834 2567 4026 
Q 2313 4219 1838 4219 
Q 1578 4219 1281 4162 
Q 984 4106 628 3988 
L 628 4550 
Q 988 4650 1302 4700 
Q 1616 4750 1894 4750 
Q 2613 4750 3031 4423 
Q 3450 4097 3450 3541 
Q 3450 3153 3228 2886 
Q 3006 2619 2597 2516 
z
" transform="scale(0.015625)"/>
       </defs>
       <use xlink:href="#DejaVuSans-30"/>
       <use xlink:href="#DejaVuSans-2e" transform="translate(63.623047 0)"/>
       <use xlink:href="#DejaVuSans-33" transform="translate(95.410156 0)"/>
      </g>
     </g>
    </g>
    <g id="xtick_23">
     <g id="line2d_43">
      <g>
       <use xlink:href="#m4dd49d857c" x="200.596543" y="465.890625" style="stroke: #000000; stroke-width: 0.8"/>
      </g>
     </g>
     <g id="text_17">
      <!-- 0.4 -->
      <g transform="translate(192.644981 480.489062) scale(0.1 -0.1)">
       <defs>
        <path id="DejaVuSans-34" d="M 2419 4116 
L 825 1625 
L 2419 1625 
L 2419 4116 
z
M 2253 4666 
L 3047 4666 
L 3047 1625 
L 3713 1625 
L 3713 1100 
L 3047 1100 
L 3047 0 
L 2419 0 
L 2419 1100 
L 313 1100 
L 313 1709 
L 2253 4666 
z
" transform="scale(0.015625)"/>
       </defs>
       <use xlink:href="#DejaVuSans-30"/>
       <use xlink:href="#DejaVuSans-2e" transform="translate(63.623047 0)"/>
       <use xlink:href="#DejaVuSans-34" transform="translate(95.410156 0)"/>
      </g>
     </g>
    </g>
    <g id="xtick_24">
     <g id="line2d_44">
      <g>
       <use xlink:href="#m4dd49d857c" x="232.702412" y="465.890625" style="stroke: #000000; stroke-width: 0.8"/>
      </g>
     </g>
     <g id="text_18">
      <!-- 0.5 -->
      <g transform="translate(224.75085 480.489062) scale(0.1 -0.1)">
       <use xlink:href="#DejaVuSans-30"/>
       <use xlink:href="#DejaVuSans-2e" transform="translate(63.623047 0)"/>
       <use xlink:href="#DejaVuSans-35" transform="translate(95.410156 0)"/>
      </g>
     </g>
    </g>
    <g id="xtick_25">
     <g id="line2d_45">
      <g>
       <use xlink:href="#m4dd49d857c" x="264.808281" y="465.890625" style="stroke: #000000; stroke-width: 0.8"/>
      </g>
     </g>
     <g id="text_19">
      <!-- 0.6 -->
      <g transform="translate(256.856719 480.489062) scale(0.1 -0.1)">
       <defs>
        <path id="DejaVuSans-36" d="M 2113 2584 
Q 1688 2584 1439 2293 
Q 1191 2003 1191 1497 
Q 1191 994 1439 701 
Q 1688 409 2113 409 
Q 2538 409 2786 701 
Q 3034 994 3034 1497 
Q 3034 2003 2786 2293 
Q 2538 2584 2113 2584 
z
M 3366 4563 
L 3366 3988 
Q 3128 4100 2886 4159 
Q 2644 4219 2406 4219 
Q 1781 4219 1451 3797 
Q 1122 3375 1075 2522 
Q 1259 2794 1537 2939 
Q 1816 3084 2150 3084 
Q 2853 3084 3261 2657 
Q 3669 2231 3669 1497 
Q 3669 778 3244 343 
Q 2819 -91 2113 -91 
Q 1303 -91 875 529 
Q 447 1150 447 2328 
Q 447 3434 972 4092 
Q 1497 4750 2381 4750 
Q 2619 4750 2861 4703 
Q 3103 4656 3366 4563 
z
" transform="scale(0.015625)"/>
       </defs>
       <use xlink:href="#DejaVuSans-30"/>
       <use xlink:href="#DejaVuSans-2e" transform="translate(63.623047 0)"/>
       <use xlink:href="#DejaVuSans-36" transform="translate(95.410156 0)"/>
      </g>
     </g>
    </g>
    <g id="xtick_26">
     <g id="line2d_46">
      <g>
       <use xlink:href="#m4dd49d857c" x="296.91415" y="465.890625" style="stroke: #000000; stroke-width: 0.8"/>
      </g>
     </g>
     <g id="text_20">
      <!-- 0.7 -->
      <g transform="translate(288.962587 480.489062) scale(0.1 -0.1)">
       <defs>
        <path id="DejaVuSans-37" d="M 525 4666 
L 3525 4666 
L 3525 4397 
L 1831 0 
L 1172 0 
L 2766 4134 
L 525 4134 
L 525 4666 
z
" transform="scale(0.015625)"/>
       </defs>
       <use xlink:href="#DejaVuSans-30"/>
       <use xlink:href="#DejaVuSans-2e" transform="translate(63.623047 0)"/>
       <use xlink:href="#DejaVuSans-37" transform="translate(95.410156 0)"/>
      </g>
     </g>
    </g>
    <g id="xtick_27">
     <g id="line2d_47">
      <g>
       <use xlink:href="#m4dd49d857c" x="329.020019" y="465.890625" style="stroke: #000000; stroke-width: 0.8"/>
      </g>
     </g>
     <g id="text_21">
      <!-- 0.8 -->
      <g transform="translate(321.068456 480.489062) scale(0.1 -0.1)">
       <defs>
        <path id="DejaVuSans-38" d="M 2034 2216 
Q 1584 2216 1326 1975 
Q 1069 1734 1069 1313 
Q 1069 891 1326 650 
Q 1584 409 2034 409 
Q 2484 409 2743 651 
Q 3003 894 3003 1313 
Q 3003 1734 2745 1975 
Q 2488 2216 2034 2216 
z
M 1403 2484 
Q 997 2584 770 2862 
Q 544 3141 544 3541 
Q 544 4100 942 4425 
Q 1341 4750 2034 4750 
Q 2731 4750 3128 4425 
Q 3525 4100 3525 3541 
Q 3525 3141 3298 2862 
Q 3072 2584 2669 2484 
Q 3125 2378 3379 2068 
Q 3634 1759 3634 1313 
Q 3634 634 3220 271 
Q 2806 -91 2034 -91 
Q 1263 -91 848 271 
Q 434 634 434 1313 
Q 434 1759 690 2068 
Q 947 2378 1403 2484 
z
M 1172 3481 
Q 1172 3119 1398 2916 
Q 1625 2713 2034 2713 
Q 2441 2713 2670 2916 
Q 2900 3119 2900 3481 
Q 2900 3844 2670 4047 
Q 2441 4250 2034 4250 
Q 1625 4250 1398 4047 
Q 1172 3844 1172 3481 
z
" transform="scale(0.015625)"/>
       </defs>
       <use xlink:href="#DejaVuSans-30"/>
       <use xlink:href="#DejaVuSans-2e" transform="translate(63.623047 0)"/>
       <use xlink:href="#DejaVuSans-38" transform="translate(95.410156 0)"/>
      </g>
     </g>
    </g>
    <g id="text_22">
     <!-- Time (s) -->
     <g transform="translate(176.629453 494.927031) scale(0.11 -0.11)">
      <use xlink:href="#DejaVuSans-54"/>
      <use xlink:href="#DejaVuSans-69" transform="translate(57.958984 0)"/>
      <use xlink:href="#DejaVuSans-6d" transform="translate(85.742188 0)"/>
      <use xlink:href="#DejaVuSans-65" transform="translate(183.154297 0)"/>
      <use xlink:href="#DejaVuSans-20" transform="translate(244.677734 0)"/>
      <use xlink:href="#DejaVuSans-28" transform="translate(276.464844 0)"/>
      <use xlink:href="#DejaVuSans-73" transform="translate(315.478516 0)"/>
      <use xlink:href="#DejaVuSans-29" transform="translate(367.578125 0)"/>
     </g>
    </g>
   </g>
   <g id="matplotlib.axis_6">
    <g id="ytick_13">
     <g id="line2d_48">
      <g>
       <use xlink:href="#md84a8e2e5f" x="59.49125" y="460.83534" style="stroke: #000000; stroke-width: 0.8"/>
      </g>
     </g>
     <g id="text_23">
      <!-- −0.10 -->
      <g transform="translate(21.845938 464.634559) scale(0.1 -0.1)">
       <use xlink:href="#DejaVuSans-2212"/>
       <use xlink:href="#DejaVuSans-30" transform="translate(83.789062 0)"/>
       <use xlink:href="#DejaVuSans-2e" transform="translate(147.412109 0)"/>
       <use xlink:href="#DejaVuSans-31" transform="translate(179.199219 0)"/>
       <use xlink:href="#DejaVuSans-30" transform="translate(242.822266 0)"/>
      </g>
     </g>
    </g>
    <g id="ytick_14">
     <g id="line2d_49">
      <g>
       <use xlink:href="#md84a8e2e5f" x="59.49125" y="427.000051" style="stroke: #000000; stroke-width: 0.8"/>
      </g>
     </g>
     <g id="text_24">
      <!-- −0.05 -->
      <g transform="translate(21.845938 430.79927) scale(0.1 -0.1)">
       <use xlink:href="#DejaVuSans-2212"/>
       <use xlink:href="#DejaVuSans-30" transform="translate(83.789062 0)"/>
       <use xlink:href="#DejaVuSans-2e" transform="translate(147.412109 0)"/>
       <use xlink:href="#DejaVuSans-30" transform="translate(179.199219 0)"/>
       <use xlink:href="#DejaVuSans-35" transform="translate(242.822266 0)"/>
      </g>
     </g>
    </g>
    <g id="ytick_15">
     <g id="line2d_50">
      <g>
       <use xlink:href="#md84a8e2e5f" x="59.49125" y="393.164763" style="stroke: #000000; stroke-width: 0.8"/>
      </g>
     </g>
     <g id="text_25">
      <!-- 0.00 -->
      <g transform="translate(30.225625 396.963981) scale(0.1 -0.1)">
       <use xlink:href="#DejaVuSans-30"/>
       <use xlink:href="#DejaVuSans-2e" transform="translate(63.623047 0)"/>
       <use xlink:href="#DejaVuSans-30" transform="translate(95.410156 0)"/>
       <use xlink:href="#DejaVuSans-30" transform="translate(159.033203 0)"/>
      </g>
     </g>
    </g>
    <g id="ytick_16">
     <g id="line2d_51">
      <g>
       <use xlink:href="#md84a8e2e5f" x="59.49125" y="359.329474" style="stroke: #000000; stroke-width: 0.8"/>
      </g>
     </g>
     <g id="text_26">
      <!-- 0.05 -->
      <g transform="translate(30.225625 363.128693) scale(0.1 -0.1)">
       <use xlink:href="#DejaVuSans-30"/>
       <use xlink:href="#DejaVuSans-2e" transform="translate(63.623047 0)"/>
       <use xlink:href="#DejaVuSans-30" transform="translate(95.410156 0)"/>
       <use xlink:href="#DejaVuSans-35" transform="translate(159.033203 0)"/>
      </g>
     </g>
    </g>
    <g id="ytick_17">
     <g id="line2d_52">
      <g>
       <use xlink:href="#md84a8e2e5f" x="59.49125" y="325.494185" style="stroke: #000000; stroke-width: 0.8"/>
      </g>
     </g>
     <g id="text_27">
      <!-- 0.10 -->
      <g transform="translate(30.225625 329.293404) scale(0.1 -0.1)">
       <use xlink:href="#DejaVuSans-30"/>
       <use xlink:href="#DejaVuSans-2e" transform="translate(63.623047 0)"/>
       <use xlink:href="#DejaVuSans-31" transform="translate(95.410156 0)"/>
       <use xlink:href="#DejaVuSans-30" transform="translate(159.033203 0)"/>
      </g>
     </g>
    </g>
    <g id="ytick_18">
     <g id="line2d_53">
      <g>
       <use xlink:href="#md84a8e2e5f" x="59.49125" y="291.658897" style="stroke: #000000; stroke-width: 0.8"/>
      </g>
     </g>
     <g id="text_28">
      <!-- 0.15 -->
      <g transform="translate(30.225625 295.458115) scale(0.1 -0.1)">
       <use xlink:href="#DejaVuSans-30"/>
       <use xlink:href="#DejaVuSans-2e" transform="translate(63.623047 0)"/>
       <use xlink:href="#DejaVuSans-31" transform="translate(95.410156 0)"/>
       <use xlink:href="#DejaVuSans-35" transform="translate(159.033203 0)"/>
      </g>
     </g>
    </g>
    <g id="text_29">
     <!-- target - flanker -->
     <g transform="translate(15.558281 406.245234) rotate(-90) scale(0.11 -0.11)">
      <use xlink:href="#DejaVuSans-74"/>
      <use xlink:href="#DejaVuSans-61" transform="translate(39.208984 0)"/>
      <use xlink:href="#DejaVuSans-72" transform="translate(100.488281 0)"/>
      <use xlink:href="#DejaVuSans-67" transform="translate(139.851562 0)"/>
      <use xlink:href="#DejaVuSans-65" transform="translate(203.328125 0)"/>
      <use xlink:href="#DejaVuSans-74" transform="translate(264.851562 0)"/>
      <use xlink:href="#DejaVuSans-20" transform="translate(304.060547 0)"/>
      <use xlink:href="#DejaVuSans-2d" transform="translate(335.847656 0)"/>
      <use xlink:href="#DejaVuSans-20" transform="translate(371.931641 0)"/>
      <use xlink:href="#DejaVuSans-66" transform="translate(403.71875 0)"/>
      <use xlink:href="#DejaVuSans-6c" transform="translate(438.923828 0)"/>
      <use xlink:href="#DejaVuSans-61" transform="translate(466.707031 0)"/>
      <use xlink:href="#DejaVuSans-6e" transform="translate(527.986328 0)"/>
      <use xlink:href="#DejaVuSans-6b" transform="translate(591.365234 0)"/>
      <use xlink:href="#DejaVuSans-65" transform="translate(645.650391 0)"/>
      <use xlink:href="#DejaVuSans-72" transform="translate(707.173828 0)"/>
     </g>
    </g>
   </g>
   <g id="line2d_54">
    <path d="M 72.173068 396.181751 
L 75.383655 399.11936 
L 78.594242 401.976199 
L 81.804829 404.750386 
L 85.015416 407.438 
L 88.226003 410.033898 
L 91.436589 412.531303 
L 94.647176 414.922179 
L 97.857763 417.197017 
L 101.06835 419.345289 
L 104.278937 421.355137 
L 107.489524 423.215127 
L 110.700111 424.912914 
L 113.910698 426.43694 
L 117.121285 427.776429 
L 120.331871 428.922209 
L 123.542458 429.867062 
L 126.753045 430.605628 
L 129.963632 431.135274 
L 133.174219 431.455427 
L 136.384806 431.568011 
L 139.595393 431.47624 
L 142.80598 431.185688 
L 146.016566 430.702603 
L 149.227153 430.033746 
L 152.43774 429.186826 
L 155.648327 428.170006 
L 158.858914 426.991135 
L 162.069501 425.658261 
L 165.280088 424.179693 
L 168.490675 422.56434 
L 171.701262 420.820757 
L 174.911848 418.958302 
L 178.122435 416.986631 
L 181.333022 414.915272 
L 184.543609 412.754254 
L 187.754196 410.513156 
L 190.964783 408.202002 
L 194.17537 405.8291 
L 197.385957 403.403481 
L 200.596543 400.93309 
L 203.80713 398.425142 
L 207.017717 395.886001 
L 210.228304 393.321927 
L 213.438891 390.738105 
L 216.649478 388.139746 
L 219.860065 385.53134 
L 223.070652 382.916757 
L 226.281238 380.298972 
L 229.491825 377.680502 
L 232.702412 375.062889 
L 235.912999 372.445715 
L 239.123586 369.828188 
L 242.334173 367.207257 
L 245.54476 364.579122 
L 248.755347 361.937525 
L 251.965934 359.275639 
L 255.17652 356.584844 
L 258.387107 353.855569 
L 261.597694 351.077489 
L 264.808281 348.240071 
L 268.018868 345.332163 
L 271.229455 342.343586 
L 274.440042 339.264215 
L 277.650629 336.084441 
L 280.861215 332.796594 
L 284.071802 329.393642 
L 287.282389 325.869984 
L 290.492976 322.221897 
L 293.703563 318.447073 
L 296.91415 314.54339 
L 300.124737 310.511523 
L 303.335324 306.351854 
L 306.545911 302.066362 
L 309.756497 297.656759 
L 312.967084 293.126091 
L 316.177671 288.477112 
L 319.388258 283.712895 
L 322.598845 278.836296 
L 325.809432 273.850037 
" clip-path="url(#p5872d3bf3d)" style="fill: none; stroke: #4c78a8; stroke-width: 2; stroke-linecap: square"/>
   </g>
   <g id="line2d_55">
    <path d="M 59.49125 393.164763 
L 338.49125 393.164763 
" clip-path="url(#p5872d3bf3d)" style="fill: none; stroke: #444444; stroke-linecap: square"/>
   </g>
   <g id="line2d_56">
    <path d="M 172.554288 465.890625 
L 172.554288 264.290625 
" clip-path="url(#p5872d3bf3d)" style="fill: none; stroke-dasharray: 2,3.3; stroke-dashoffset: 0; stroke: #666666; stroke-width: 2"/>
   </g>
   <g id="line2d_57">
    <path d="M 223.763246 465.890625 
L 223.763246 264.290625 
" clip-path="url(#p5872d3bf3d)" style="fill: none; stroke-dasharray: 12.8,3.2,2,3.2; stroke-dashoffset: 0; stroke: #999999; stroke-width: 2"/>
   </g>
   <g id="patch_9">
    <path d="M 59.49125 465.890625 
L 59.49125 264.290625 
" style="fill: none; stroke: #000000; stroke-width: 0.8; stroke-linejoin: miter; stroke-linecap: square"/>
   </g>
   <g id="patch_10">
    <path d="M 59.49125 465.890625 
L 338.49125 465.890625 
" style="fill: none; stroke: #000000; stroke-width: 0.8; stroke-linejoin: miter; stroke-linecap: square"/>
   </g>
   <g id="text_30">
    <!-- Older 80-89 | incongruent correct -->
    <g transform="translate(98.376875 258.290625) scale(0.12 -0.12)">
     <defs>
      <path id="DejaVuSans-4f" d="M 2522 4238 
Q 1834 4238 1429 3725 
Q 1025 3213 1025 2328 
Q 1025 1447 1429 934 
Q 1834 422 2522 422 
Q 3209 422 3611 934 
Q 4013 1447 4013 2328 
Q 4013 3213 3611 3725 
Q 3209 4238 2522 4238 
z
M 2522 4750 
Q 3503 4750 4090 4092 
Q 4678 3434 4678 2328 
Q 4678 1225 4090 567 
Q 3503 -91 2522 -91 
Q 1538 -91 948 565 
Q 359 1222 359 2328 
Q 359 3434 948 4092 
Q 1538 4750 2522 4750 
z
" transform="scale(0.015625)"/>
      <path id="DejaVuSans-64" d="M 2906 2969 
L 2906 4863 
L 3481 4863 
L 3481 0 
L 2906 0 
L 2906 525 
Q 2725 213 2448 61 
Q 2172 -91 1784 -91 
Q 1150 -91 751 415 
Q 353 922 353 1747 
Q 353 2572 751 3078 
Q 1150 3584 1784 3584 
Q 2172 3584 2448 3432 
Q 2725 3281 2906 2969 
z
M 947 1747 
Q 947 1113 1208 752 
Q 1469 391 1925 391 
Q 2381 391 2643 752 
Q 2906 1113 2906 1747 
Q 2906 2381 2643 2742 
Q 2381 3103 1925 3103 
Q 1469 3103 1208 2742 
Q 947 2381 947 1747 
z
" transform="scale(0.015625)"/>
     </defs>
     <use xlink:href="#DejaVuSans-4f"/>
     <use xlink:href="#DejaVuSans-6c" transform="translate(78.710938 0)"/>
     <use xlink:href="#DejaVuSans-64" transform="translate(106.494141 0)"/>
     <use xlink:href="#DejaVuSans-65" transform="translate(169.970703 0)"/>
     <use xlink:href="#DejaVuSans-72" transform="translate(231.494141 0)"/>
     <use xlink:href="#DejaVuSans-20" transform="translate(272.607422 0)"/>
     <use xlink:href="#DejaVuSans-38" transform="translate(304.394531 0)"/>
     <use xlink:href="#DejaVuSans-30" transform="translate(368.017578 0)"/>
     <use xlink:href="#DejaVuSans-2d" transform="translate(431.640625 0)"/>
     <use xlink:href="#DejaVuSans-38" transform="translate(467.724609 0)"/>
     <use xlink:href="#DejaVuSans-39" transform="translate(531.347656 0)"/>
     <use xlink:href="#DejaVuSans-20" transform="translate(594.970703 0)"/>
     <use xlink:href="#DejaVuSans-7c" transform="translate(626.757812 0)"/>
     <use xlink:href="#DejaVuSans-20" transform="translate(660.449219 0)"/>
     <use xlink:href="#DejaVuSans-69" transform="translate(692.236328 0)"/>
     <use xlink:href="#DejaVuSans-6e" transform="translate(720.019531 0)"/>
     <use xlink:href="#DejaVuSans-63" transform="translate(783.398438 0)"/>
     <use xlink:href="#DejaVuSans-6f" transform="translate(838.378906 0)"/>
     <use xlink:href="#DejaVuSans-6e" transform="translate(899.560547 0)"/>
     <use xlink:href="#DejaVuSans-67" transform="translate(962.939453 0)"/>
     <use xlink:href="#DejaVuSans-72" transform="translate(1026.416016 0)"/>
     <use xlink:href="#DejaVuSans-75" transform="translate(1067.529297 0)"/>
     <use xlink:href="#DejaVuSans-65" transform="translate(1130.908203 0)"/>
     <use xlink:href="#DejaVuSans-6e" transform="translate(1192.431641 0)"/>
     <use xlink:href="#DejaVuSans-74" transform="translate(1255.810547 0)"/>
     <use xlink:href="#DejaVuSans-20" transform="translate(1295.019531 0)"/>
     <use xlink:href="#DejaVuSans-63" transform="translate(1326.806641 0)"/>
     <use xlink:href="#DejaVuSans-6f" transform="translate(1381.787109 0)"/>
     <use xlink:href="#DejaVuSans-72" transform="translate(1442.96875 0)"/>
     <use xlink:href="#DejaVuSans-72" transform="translate(1482.332031 0)"/>
     <use xlink:href="#DejaVuSans-65" transform="translate(1521.195312 0)"/>
     <use xlink:href="#DejaVuSans-63" transform="translate(1582.71875 0)"/>
     <use xlink:href="#DejaVuSans-74" transform="translate(1637.699219 0)"/>
    </g>
   </g>
  </g>
  <g id="axes_4">
   <g id="patch_11">
    <path d="M 394.29125 465.890625 
L 673.29125 465.890625 
L 673.29125 264.290625 
L 394.29125 264.290625 
z
" style="fill: #ffffff"/>
   </g>
   <g id="matplotlib.axis_7">
    <g id="xtick_28">
     <g id="line2d_58">
      <g>
       <use xlink:href="#m4dd49d857c" x="406.973068" y="465.890625" style="stroke: #000000; stroke-width: 0.8"/>
      </g>
     </g>
     <g id="text_31">
      <!-- 0.0 -->
      <g transform="translate(399.021506 480.489062) scale(0.1 -0.1)">
       <use xlink:href="#DejaVuSans-30"/>
       <use xlink:href="#DejaVuSans-2e" transform="translate(63.623047 0)"/>
       <use xlink:href="#DejaVuSans-30" transform="translate(95.410156 0)"/>
      </g>
     </g>
    </g>
    <g id="xtick_29">
     <g id="line2d_59">
      <g>
       <use xlink:href="#m4dd49d857c" x="439.078937" y="465.890625" style="stroke: #000000; stroke-width: 0.8"/>
      </g>
     </g>
     <g id="text_32">
      <!-- 0.1 -->
      <g transform="translate(431.127374 480.489062) scale(0.1 -0.1)">
       <use xlink:href="#DejaVuSans-30"/>
       <use xlink:href="#DejaVuSans-2e" transform="translate(63.623047 0)"/>
       <use xlink:href="#DejaVuSans-31" transform="translate(95.410156 0)"/>
      </g>
     </g>
    </g>
    <g id="xtick_30">
     <g id="line2d_60">
      <g>
       <use xlink:href="#m4dd49d857c" x="471.184806" y="465.890625" style="stroke: #000000; stroke-width: 0.8"/>
      </g>
     </g>
     <g id="text_33">
      <!-- 0.2 -->
      <g transform="translate(463.233243 480.489062) scale(0.1 -0.1)">
       <use xlink:href="#DejaVuSans-30"/>
       <use xlink:href="#DejaVuSans-2e" transform="translate(63.623047 0)"/>
       <use xlink:href="#DejaVuSans-32" transform="translate(95.410156 0)"/>
      </g>
     </g>
    </g>
    <g id="xtick_31">
     <g id="line2d_61">
      <g>
       <use xlink:href="#m4dd49d857c" x="503.290675" y="465.890625" style="stroke: #000000; stroke-width: 0.8"/>
      </g>
     </g>
     <g id="text_34">
      <!-- 0.3 -->
      <g transform="translate(495.339112 480.489062) scale(0.1 -0.1)">
       <use xlink:href="#DejaVuSans-30"/>
       <use xlink:href="#DejaVuSans-2e" transform="translate(63.623047 0)"/>
       <use xlink:href="#DejaVuSans-33" transform="translate(95.410156 0)"/>
      </g>
     </g>
    </g>
    <g id="xtick_32">
     <g id="line2d_62">
      <g>
       <use xlink:href="#m4dd49d857c" x="535.396543" y="465.890625" style="stroke: #000000; stroke-width: 0.8"/>
      </g>
     </g>
     <g id="text_35">
      <!-- 0.4 -->
      <g transform="translate(527.444981 480.489062) scale(0.1 -0.1)">
       <use xlink:href="#DejaVuSans-30"/>
       <use xlink:href="#DejaVuSans-2e" transform="translate(63.623047 0)"/>
       <use xlink:href="#DejaVuSans-34" transform="translate(95.410156 0)"/>
      </g>
     </g>
    </g>
    <g id="xtick_33">
     <g id="line2d_63">
      <g>
       <use xlink:href="#m4dd49d857c" x="567.502412" y="465.890625" style="stroke: #000000; stroke-width: 0.8"/>
      </g>
     </g>
     <g id="text_36">
      <!-- 0.5 -->
      <g transform="translate(559.55085 480.489062) scale(0.1 -0.1)">
       <use xlink:href="#DejaVuSans-30"/>
       <use xlink:href="#DejaVuSans-2e" transform="translate(63.623047 0)"/>
       <use xlink:href="#DejaVuSans-35" transform="translate(95.410156 0)"/>
      </g>
     </g>
    </g>
    <g id="xtick_34">
     <g id="line2d_64">
      <g>
       <use xlink:href="#m4dd49d857c" x="599.608281" y="465.890625" style="stroke: #000000; stroke-width: 0.8"/>
      </g>
     </g>
     <g id="text_37">
      <!-- 0.6 -->
      <g transform="translate(591.656719 480.489062) scale(0.1 -0.1)">
       <use xlink:href="#DejaVuSans-30"/>
       <use xlink:href="#DejaVuSans-2e" transform="translate(63.623047 0)"/>
       <use xlink:href="#DejaVuSans-36" transform="translate(95.410156 0)"/>
      </g>
     </g>
    </g>
    <g id="xtick_35">
     <g id="line2d_65">
      <g>
       <use xlink:href="#m4dd49d857c" x="631.71415" y="465.890625" style="stroke: #000000; stroke-width: 0.8"/>
      </g>
     </g>
     <g id="text_38">
      <!-- 0.7 -->
      <g transform="translate(623.762587 480.489062) scale(0.1 -0.1)">
       <use xlink:href="#DejaVuSans-30"/>
       <use xlink:href="#DejaVuSans-2e" transform="translate(63.623047 0)"/>
       <use xlink:href="#DejaVuSans-37" transform="translate(95.410156 0)"/>
      </g>
     </g>
    </g>
    <g id="xtick_36">
     <g id="line2d_66">
      <g>
       <use xlink:href="#m4dd49d857c" x="663.820019" y="465.890625" style="stroke: #000000; stroke-width: 0.8"/>
      </g>
     </g>
     <g id="text_39">
      <!-- 0.8 -->
      <g transform="translate(655.868456 480.489062) scale(0.1 -0.1)">
       <use xlink:href="#DejaVuSans-30"/>
       <use xlink:href="#DejaVuSans-2e" transform="translate(63.623047 0)"/>
       <use xlink:href="#DejaVuSans-38" transform="translate(95.410156 0)"/>
      </g>
     </g>
    </g>
    <g id="text_40">
     <!-- Time (s) -->
     <g transform="translate(511.429453 494.927031) scale(0.11 -0.11)">
      <use xlink:href="#DejaVuSans-54"/>
      <use xlink:href="#DejaVuSans-69" transform="translate(57.958984 0)"/>
      <use xlink:href="#DejaVuSans-6d" transform="translate(85.742188 0)"/>
      <use xlink:href="#DejaVuSans-65" transform="translate(183.154297 0)"/>
      <use xlink:href="#DejaVuSans-20" transform="translate(244.677734 0)"/>
      <use xlink:href="#DejaVuSans-28" transform="translate(276.464844 0)"/>
      <use xlink:href="#DejaVuSans-73" transform="translate(315.478516 0)"/>
      <use xlink:href="#DejaVuSans-29" transform="translate(367.578125 0)"/>
     </g>
    </g>
   </g>
   <g id="matplotlib.axis_8">
    <g id="ytick_19">
     <g id="line2d_67">
      <g>
       <use xlink:href="#md84a8e2e5f" x="394.29125" y="460.83534" style="stroke: #000000; stroke-width: 0.8"/>
      </g>
     </g>
    </g>
    <g id="ytick_20">
     <g id="line2d_68">
      <g>
       <use xlink:href="#md84a8e2e5f" x="394.29125" y="427.000051" style="stroke: #000000; stroke-width: 0.8"/>
      </g>
     </g>
    </g>
    <g id="ytick_21">
     <g id="line2d_69">
      <g>
       <use xlink:href="#md84a8e2e5f" x="394.29125" y="393.164763" style="stroke: #000000; stroke-width: 0.8"/>
      </g>
     </g>
    </g>
    <g id="ytick_22">
     <g id="line2d_70">
      <g>
       <use xlink:href="#md84a8e2e5f" x="394.29125" y="359.329474" style="stroke: #000000; stroke-width: 0.8"/>
      </g>
     </g>
    </g>
    <g id="ytick_23">
     <g id="line2d_71">
      <g>
       <use xlink:href="#md84a8e2e5f" x="394.29125" y="325.494185" style="stroke: #000000; stroke-width: 0.8"/>
      </g>
     </g>
    </g>
    <g id="ytick_24">
     <g id="line2d_72">
      <g>
       <use xlink:href="#md84a8e2e5f" x="394.29125" y="291.658897" style="stroke: #000000; stroke-width: 0.8"/>
      </g>
     </g>
    </g>
    <g id="text_41">
     <!-- target - flanker -->
     <g transform="translate(384.503594 406.245234) rotate(-90) scale(0.11 -0.11)">
      <use xlink:href="#DejaVuSans-74"/>
      <use xlink:href="#DejaVuSans-61" transform="translate(39.208984 0)"/>
      <use xlink:href="#DejaVuSans-72" transform="translate(100.488281 0)"/>
      <use xlink:href="#DejaVuSans-67" transform="translate(139.851562 0)"/>
      <use xlink:href="#DejaVuSans-65" transform="translate(203.328125 0)"/>
      <use xlink:href="#DejaVuSans-74" transform="translate(264.851562 0)"/>
      <use xlink:href="#DejaVuSans-20" transform="translate(304.060547 0)"/>
      <use xlink:href="#DejaVuSans-2d" transform="translate(335.847656 0)"/>
      <use xlink:href="#DejaVuSans-20" transform="translate(371.931641 0)"/>
      <use xlink:href="#DejaVuSans-66" transform="translate(403.71875 0)"/>
      <use xlink:href="#DejaVuSans-6c" transform="translate(438.923828 0)"/>
      <use xlink:href="#DejaVuSans-61" transform="translate(466.707031 0)"/>
      <use xlink:href="#DejaVuSans-6e" transform="translate(527.986328 0)"/>
      <use xlink:href="#DejaVuSans-6b" transform="translate(591.365234 0)"/>
      <use xlink:href="#DejaVuSans-65" transform="translate(645.650391 0)"/>
      <use xlink:href="#DejaVuSans-72" transform="translate(707.173828 0)"/>
     </g>
    </g>
   </g>
   <g id="line2d_73">
    <path d="M 406.973068 396.800219 
L 410.183655 400.365801 
L 413.394242 403.863096 
L 416.604829 407.292775 
L 419.815416 410.653718 
L 423.026003 413.943591 
L 426.236589 417.158649 
L 429.447176 420.293813 
L 432.657763 423.342428 
L 435.86835 426.296933 
L 439.078937 429.148795 
L 442.289524 431.888416 
L 445.500111 434.506402 
L 448.710698 436.993346 
L 451.921285 439.34006 
L 455.131871 441.538882 
L 458.342458 443.582752 
L 461.553045 445.466584 
L 464.763632 447.186904 
L 467.974219 448.74163 
L 471.184806 450.129944 
L 474.395393 451.352497 
L 477.60598 452.4106 
L 480.816566 453.305881 
L 484.027153 454.040575 
L 487.23774 454.616465 
L 490.448327 455.035861 
L 493.658914 455.301289 
L 496.869501 455.415099 
L 500.080088 455.381147 
L 503.290675 455.202958 
L 506.501262 454.886884 
L 509.711848 454.439284 
L 512.922435 453.868713 
L 516.133022 453.184816 
L 519.343609 452.398212 
L 522.554196 451.52102 
L 525.764783 450.565317 
L 528.97537 449.543531 
L 532.185957 448.468165 
L 535.396543 447.350926 
L 538.60713 446.202816 
L 541.817717 445.033923 
L 545.028304 443.852743 
L 548.238891 442.667147 
L 551.449478 441.482831 
L 554.660065 440.304974 
L 557.870652 439.136233 
L 561.081238 437.978725 
L 564.291825 436.832677 
L 567.502412 435.696521 
L 570.712999 434.568261 
L 573.923586 433.443731 
L 577.134173 432.318214 
L 580.34476 431.185572 
L 583.555347 430.039035 
L 586.765934 428.870808 
L 589.97652 427.6724 
L 593.187107 426.43576 
L 596.397694 425.152236 
L 599.608281 423.813231 
L 602.818868 422.411077 
L 606.029455 420.938635 
L 609.240042 419.389869 
L 612.450629 417.760308 
L 615.661215 416.046406 
L 618.871802 414.246239 
L 622.082389 412.359497 
L 625.292976 410.386823 
L 628.503563 408.330413 
L 631.71415 406.192744 
L 634.924737 403.977481 
L 638.135324 401.688238 
L 641.345911 399.329207 
L 644.556497 396.90393 
L 647.767084 394.415938 
L 650.977671 391.868543 
L 654.188258 389.264447 
L 657.398845 386.605889 
L 660.609432 383.894296 
" clip-path="url(#p64f1ff3c77)" style="fill: none; stroke: #4c78a8; stroke-width: 2; stroke-linecap: square"/>
   </g>
   <g id="line2d_74">
    <path d="M 394.29125 393.164763 
L 673.29125 393.164763 
" clip-path="url(#p64f1ff3c77)" style="fill: none; stroke: #444444; stroke-linecap: square"/>
   </g>
   <g id="line2d_75">
    <path d="M 471.181029 465.890625 
L 471.181029 264.290625 
" clip-path="url(#p64f1ff3c77)" style="fill: none; stroke-dasharray: 2,3.3; stroke-dashoffset: 0; stroke: #666666; stroke-width: 2"/>
   </g>
   <g id="line2d_76">
    <path d="M 609.567453 465.890625 
L 609.567453 264.290625 
" clip-path="url(#p64f1ff3c77)" style="fill: none; stroke-dasharray: 12.8,3.2,2,3.2; stroke-dashoffset: 0; stroke: #999999; stroke-width: 2"/>
   </g>
   <g id="patch_12">
    <path d="M 394.29125 465.890625 
L 394.29125 264.290625 
" style="fill: none; stroke: #000000; stroke-width: 0.8; stroke-linejoin: miter; stroke-linecap: square"/>
   </g>
   <g id="patch_13">
    <path d="M 394.29125 465.890625 
L 673.29125 465.890625 
" style="fill: none; stroke: #000000; stroke-width: 0.8; stroke-linejoin: miter; stroke-linecap: square"/>
   </g>
   <g id="text_42">
    <!-- Older 80-89 | incongruent error -->
    <g transform="translate(439.660625 258.290625) scale(0.12 -0.12)">
     <use xlink:href="#DejaVuSans-4f"/>
     <use xlink:href="#DejaVuSans-6c" transform="translate(78.710938 0)"/>
     <use xlink:href="#DejaVuSans-64" transform="translate(106.494141 0)"/>
     <use xlink:href="#DejaVuSans-65" transform="translate(169.970703 0)"/>
     <use xlink:href="#DejaVuSans-72" transform="translate(231.494141 0)"/>
     <use xlink:href="#DejaVuSans-20" transform="translate(272.607422 0)"/>
     <use xlink:href="#DejaVuSans-38" transform="translate(304.394531 0)"/>
     <use xlink:href="#DejaVuSans-30" transform="translate(368.017578 0)"/>
     <use xlink:href="#DejaVuSans-2d" transform="translate(431.640625 0)"/>
     <use xlink:href="#DejaVuSans-38" transform="translate(467.724609 0)"/>
     <use xlink:href="#DejaVuSans-39" transform="translate(531.347656 0)"/>
     <use xlink:href="#DejaVuSans-20" transform="translate(594.970703 0)"/>
     <use xlink:href="#DejaVuSans-7c" transform="translate(626.757812 0)"/>
     <use xlink:href="#DejaVuSans-20" transform="translate(660.449219 0)"/>
     <use xlink:href="#DejaVuSans-69" transform="translate(692.236328 0)"/>
     <use xlink:href="#DejaVuSans-6e" transform="translate(720.019531 0)"/>
     <use xlink:href="#DejaVuSans-63" transform="translate(783.398438 0)"/>
     <use xlink:href="#DejaVuSans-6f" transform="translate(838.378906 0)"/>
     <use xlink:href="#DejaVuSans-6e" transform="translate(899.560547 0)"/>
     <use xlink:href="#DejaVuSans-67" transform="translate(962.939453 0)"/>
     <use xlink:href="#DejaVuSans-72" transform="translate(1026.416016 0)"/>
     <use xlink:href="#DejaVuSans-75" transform="translate(1067.529297 0)"/>
     <use xlink:href="#DejaVuSans-65" transform="translate(1130.908203 0)"/>
     <use xlink:href="#DejaVuSans-6e" transform="translate(1192.431641 0)"/>
     <use xlink:href="#DejaVuSans-74" transform="translate(1255.810547 0)"/>
     <use xlink:href="#DejaVuSans-20" transform="translate(1295.019531 0)"/>
     <use xlink:href="#DejaVuSans-65" transform="translate(1326.806641 0)"/>
     <use xlink:href="#DejaVuSans-72" transform="translate(1388.330078 0)"/>
     <use xlink:href="#DejaVuSans-72" transform="translate(1427.693359 0)"/>
     <use xlink:href="#DejaVuSans-6f" transform="translate(1466.556641 0)"/>
     <use xlink:href="#DejaVuSans-72" transform="translate(1527.738281 0)"/>
    </g>
   </g>
  </g>
 </g>
 <defs>
  <clipPath id="p7a3ba75f65">
   <rect x="59.49125" y="22.370625" width="279" height="201.6"/>
  </clipPath>
  <clipPath id="pbf1e34b3bc">
   <rect x="394.29125" y="22.370625" width="279" height="201.6"/>
  </clipPath>
  <clipPath id="p5872d3bf3d">
   <rect x="59.49125" y="264.290625" width="279" height="201.6"/>
  </clipPath>
  <clipPath id="p64f1ff3c77">
   <rect x="394.29125" y="264.290625" width="279" height="201.6"/>
  </clipPath>
 </defs>
</svg>
